/* XPM */
char const * b_card2_xpm[] = {
"13 13 14 1",
" 	c None",
".	c #8D8F0F",
"+	c #88870F",
"@	c #82800E",
"#	c #EBE813",
"$	c #D3D112",
"%	c #AAA70F",
"&	c #F5F35F",
"*	c #F2EF36",
"=	c #3C3533",
"-	c #75730E",
";	c #4D4D0B",
">	c #40410B",
",	c #35340A",
".+@@@@@@@@@+#",
"$$$$$$$$$$$$@",
"%$&**===***-;",
"%$$$=$$$=$$-;",
"%$$$$$$$=$$-;",
"%$$$$$$$=$$@;",
"%$*$$$$=$$$@;",
"%$$$$$=$$$$-;",
"%%$$$=$$$$$@;",
"%$*$=====$$-;",
"%$%$$$$$$$%@;",
"%-;;>>>>>>;>;",
";,,,,,,,,,,,,"};
