/* XPM */
char const * b_mute_xpm[] = {
"30 22 52 1",
" 	c None",
".	c #DE8C00",
"+	c #872100",
"@	c #B35A00",
"#	c #FFD553",
"$	c #FFC128",
"%	c #700909",
"&	c #272727",
"*	c #FFFFFF",
"=	c #001B40",
"-	c #775328",
";	c #906230",
">	c #855B2D",
",	c #845A2C",
"'	c #745027",
")	c #3B2B1D",
"!	c #553C1C",
"~	c #755427",
"{	c #ACA182",
"]	c #B28051",
"^	c #B38052",
"/	c #B28052",
"(	c #B38152",
"_	c #A07751",
":	c #35271C",
"<	c #150D0A",
"[	c #755428",
"}	c #966B3A",
"|	c #8A5D2F",
"1	c #8B5E2F",
"2	c #8A5D2E",
"3	c #7D572B",
"4	c #150D0B",
"5	c #966A3A",
"6	c #160D0B",
"7	c #36271C",
"8	c #8A5E2F",
"9	c #745327",
"0	c #7D582C",
"a	c #563D1D",
"b	c #634621",
"c	c #714F25",
"d	c #715025",
"e	c #725026",
"f	c #715026",
"g	c #48341F",
"h	c #553C1D",
"i	c #32251B",
"j	c #18100D",
"k	c #180F0D",
"l	c #19100D",
"m	c #19100E",
".............................+",
"@.#$$$$$$$$$$$$$$$$$$$$$$$$$%&",
"@..*.....*.*...*.*****.****.%&",
"@..**...**.*...*...*...*....%&",
"@..**...**.*...*...*...*....+&",
"@.$*.*.*.*.*...*...*...****.+&",
"@..*.*.*.*.*...*...*...*....%&",
"@@.*..*..*.*...*...*...*....+&",
"@.$*..*..*..***....*...****.%&",
"@.@........................@+&",
"@%&&=======================&=&",
"-;>>>>>>>>>,>>>>>>>>>>>>>,>>')",
"!~{]]^/]/]/]^](]^//]^^^]^(^_:<",
"![}*|1212*2*111*2*****2****3:4",
"!~5**221**2*122*2||*|2|*22|3:6",
"![5**221**|*212*222*222*12|376",
"![5*1*2*2*2*8|2*228*|22****3:<",
"!95*8*|*2*1*2|2*122*222*21|0:<",
"a[5*|2*12*1*|1|*|22*2|2*1210:<",
"![5*82*12*22***2||2*|1|****0:<",
"![bccccdcecccfcfcfcccccccccg:<",
"hijkljjjjjmkjkkjjmjjjjjjjljk4<"};
