/* XPM */
char * b_pre6_xpm[] = {
"13 13 14 1",
" 	c None",
".	c #1AA00D",
"+	c #1A9510",
"@	c #198F0F",
"#	c #20FF0D",
"$	c #21E50C",
"%	c #1CBA0D",
"&	c #69FF5F",
"*	c #44FF36",
"=	c #3C3533",
"-	c #188210",
";	c #165A10",
">	c #154C11",
",	c #144010",
".+@@@@@@@@@+#",
"$$$$$$$$$$$$@",
"%$&**===***-;",
"%$$$=$$$=$$-;",
"%$$$=$$$$$$-;",
"%$$$====$$$@;",
"%$*$=$$$=$$@;",
"%$$$=$$$=$$-;",
"%%$$=$$$=$$@;",
"%$*$$===$$$-;",
"%$%$$$$$$$%@;",
"%-;;>>>>>>;>;",
";,,,,,,,,,,,,"};
