/* XPM */
char * b_save_xpm[] = {
"13 13 14 1",
" 	c None",
".	c #5C7B1B",
"+	c #505F2F",
"@	c #434343",
"#	c #7F817A",
"$	c #DE000B",
"%	c #87003B",
"&	c #B30020",
"*	c #FF6053",
"=	c #FF2E28",
"-	c #70094F",
";	c #272727",
">	c #004039",
",	c #191919",
".+@@@@@@@@@+#",
"$$$$$$$$$$$$%",
"&$*========-;",
"&$$$$$$$$$$-;",
"&$$$$$$$$$$-;",
"&$$$$$$$$$$%;",
"&$=$$$$$$$$%;",
"&$$$$$$$$$$-;",
"&&$$$$$$$$$%;",
"&$=$$$$$$$$-;",
"&$&$$$$$$$&%;",
"&-;;>>>>>>;>;",
";,,,,,,,,,,,,"};
