/* XPM */
char * b_solo_xpm[] = {
"30 22 53 1",
" 	c None",
".	c #7C2000",
"+	c #690806",
"@	c #272118",
"#	c #F4BE91",
"$	c #F44E10",
"%	c #23241A",
"&	c #151610",
"*	c #A85600",
"=	c #FF0000",
"-	c #F4FDB7",
";	c #532800",
">	c #050406",
",	c #322020",
"'	c #452524",
")	c #3B2323",
"!	c #3C2323",
"~	c #3C2423",
"{	c #3B2322",
"]	c #322021",
"^	c #191315",
"/	c #231A1C",
"(	c #3F2524",
"_	c #EAB1B5",
":	c #643534",
"<	c #161113",
"[	c #030205",
"}	c #231A1B",
"|	c #633534",
"1	c #3A2222",
"2	c #FDF9F9",
"3	c #3A2322",
"4	c #FCF9F8",
"5	c #FCF8F8",
"6	c #402423",
"7	c #040205",
"8	c #402524",
"9	c #FDF9F8",
"0	c #161012",
"a	c #040305",
"b	c #633433",
"c	c #402422",
"d	c #633533",
"e	c #332020",
"f	c #321F20",
"g	c #332021",
"h	c #21191A",
"i	c #161013",
"j	c #362323",
"k	c #140F11",
"l	c #040306",
"m	c #050306",
"n	c #050407",
"............................+@",
".#$$$$$$$$$$$$$$$$$$$$$$$$$$%&",
".*==---===---===-=====---===@&",
".*=-=====-===-==-====-===-==@&",
".*=-====-=====-=-===-=====-=@&",
".*==--==-=====-=-===-=====-=@&",
".*====-=-=====-=-===-=====-=@&",
".*====-==-===-==-====-===-==@&",
".*=---====---===---===---===@&",
"..+++++++++++++++++++++++++;@&",
"@&&&&&&&&&&&&&&&&&&&&&&&&&>&&&",
",'))))))!~!){)~!!)))~))))!)~]^",
"/(_:::::::::::::::::::::::::<[",
"}(|1222)31244)1151)))1222316<7",
"}8:2)3))12))35135)1))9)3)2)60[",
"/8:51))123)1{)2)21))2)3311960a",
"/(b1223121)3)32323))2313))2c<[",
"}(d3)12)213)){212)){2)131)2607",
"/8:)3)233231121123)312))12)60a",
"/(:222e,fg224,ge422,eg222,ghia",
"/8jjjjjjjjjjjjjjjjjjjjjjjjjj07",
"}klmn>l>ll>nm>>nmll>mm>m>n>l[7"};
