/* XPM */
char * b_zlm_xpm[] = {
"13 13 11 1",
" 	c None",
".	c #000D00",
"+	c #000500",
"@	c #000000",
"#	c #333333",
"$	c #CC66CC",
"%	c #660066",
"&	c #99FFFF",
"*	c #FF00FF",
"=	c #FF99FF",
"-	c #990099",
".+@@@@@@@@@+#",
"$$$$$$$$$$$$%",
"$$&********$%",
"$**========$%",
"$**========$%",
"$**========$%",
"$*&========$%",
"$**========$%",
"$-*========$%",
"$*&========$%",
"$**=======*$%",
"$$$$$$$$$$$%%",
"%%%%%%%%%%%%%"};
