/* XPM */
char * level_xpm[] = {
"8 139 257 2",
"  	c None",
". 	c #149003",
"+ 	c #24B114",
"@ 	c #2DC114",
"# 	c #35C91C",
"$ 	c #3DC91C",
"% 	c #4DD22D",
"& 	c #6EEA4D",
"* 	c #004816",
"= 	c #004849",
"- 	c #00487C",
"; 	c #0048AF",
"> 	c #0048E2",
", 	c #007B00",
"' 	c #007B16",
") 	c #007B49",
"! 	c #007B7C",
"~ 	c #007BAF",
"{ 	c #007BE2",
"] 	c #00AE00",
"^ 	c #00AE16",
"/ 	c #00AE49",
"( 	c #00AE7C",
"_ 	c #00AEAF",
": 	c #00AEE2",
"< 	c #00E100",
"[ 	c #00E116",
"} 	c #00E149",
"| 	c #00E17C",
"1 	c #00E1AF",
"2 	c #00E1E2",
"3 	c #00FF00",
"4 	c #00FF16",
"5 	c #00FF49",
"6 	c #00FF7C",
"7 	c #00FFAF",
"8 	c #00FFE2",
"9 	c #161500",
"0 	c #161516",
"a 	c #161549",
"b 	c #16157C",
"c 	c #1615AF",
"d 	c #1615E2",
"e 	c #164800",
"f 	c #164816",
"g 	c #164849",
"h 	c #16487C",
"i 	c #1648AF",
"j 	c #1648E2",
"k 	c #167B00",
"l 	c #167B16",
"m 	c #167B49",
"n 	c #167B7C",
"o 	c #167BAF",
"p 	c #167BE2",
"q 	c #16AE00",
"r 	c #16AE16",
"s 	c #16AE49",
"t 	c #16AE7C",
"u 	c #16AEAF",
"v 	c #16AEE2",
"w 	c #16E100",
"x 	c #16E116",
"y 	c #16E149",
"z 	c #16E17C",
"A 	c #16E1AF",
"B 	c #16E1E2",
"C 	c #16FF00",
"D 	c #16FF16",
"E 	c #16FF49",
"F 	c #16FF7C",
"G 	c #16FFAF",
"H 	c #16FFE2",
"I 	c #491500",
"J 	c #491516",
"K 	c #491549",
"L 	c #49157C",
"M 	c #4915AF",
"N 	c #4915E2",
"O 	c #494800",
"P 	c #494816",
"Q 	c #494849",
"R 	c #49487C",
"S 	c #4948AF",
"T 	c #4948E2",
"U 	c #497B00",
"V 	c #497B16",
"W 	c #497B49",
"X 	c #497B7C",
"Y 	c #497BAF",
"Z 	c #497BE2",
"` 	c #49AE00",
" .	c #49AE16",
"..	c #49AE49",
"+.	c #49AE7C",
"@.	c #49AEAF",
"#.	c #49AEE2",
"$.	c #49E100",
"%.	c #49E116",
"&.	c #49E149",
"*.	c #49E17C",
"=.	c #49E1AF",
"-.	c #49E1E2",
";.	c #49FF00",
">.	c #49FF16",
",.	c #49FF49",
"'.	c #49FF7C",
").	c #49FFAF",
"!.	c #49FFE2",
"~.	c #7C1500",
"{.	c #7C1516",
"].	c #7C1549",
"^.	c #7C157C",
"/.	c #7C15AF",
"(.	c #7C15E2",
"_.	c #7C4800",
":.	c #7C4816",
"<.	c #7C4849",
"[.	c #7C487C",
"}.	c #7C48AF",
"|.	c #7C48E2",
"1.	c #7C7B00",
"2.	c #7C7B16",
"3.	c #7C7B49",
"4.	c #7C7B7C",
"5.	c #7C7BAF",
"6.	c #7C7BE2",
"7.	c #7CAE00",
"8.	c #7CAE16",
"9.	c #7CAE49",
"0.	c #7CAE7C",
"a.	c #7CAEAF",
"b.	c #7CAEE2",
"c.	c #7CE100",
"d.	c #7CE116",
"e.	c #7CE149",
"f.	c #7CE17C",
"g.	c #7CE1AF",
"h.	c #7CE1E2",
"i.	c #7CFF00",
"j.	c #7CFF16",
"k.	c #7CFF49",
"l.	c #7CFF7C",
"m.	c #7CFFAF",
"n.	c #7CFFE2",
"o.	c #AF1500",
"p.	c #AF1516",
"q.	c #AF1549",
"r.	c #AF157C",
"s.	c #AF15AF",
"t.	c #AF15E2",
"u.	c #AF4800",
"v.	c #AF4816",
"w.	c #AF4849",
"x.	c #AF487C",
"y.	c #AF48AF",
"z.	c #AF48E2",
"A.	c #AF7B00",
"B.	c #AF7B16",
"C.	c #AF7B49",
"D.	c #AF7B7C",
"E.	c #AF7BAF",
"F.	c #AF7BE2",
"G.	c #AFAE00",
"H.	c #AFAE16",
"I.	c #AFAE49",
"J.	c #AFAE7C",
"K.	c #AFAEAF",
"L.	c #AFAEE2",
"M.	c #AFE100",
"N.	c #AFE116",
"O.	c #AFE149",
"P.	c #AFE17C",
"Q.	c #AFE1AF",
"R.	c #AFE1E2",
"S.	c #AFFF00",
"T.	c #AFFF16",
"U.	c #AFFF49",
"V.	c #AFFF7C",
"W.	c #AFFFAF",
"X.	c #AFFFE2",
"Y.	c #E21500",
"Z.	c #E21516",
"`.	c #E21549",
" +	c #E2157C",
".+	c #E215AF",
"++	c #E215E2",
"@+	c #E24800",
"#+	c #E24816",
"$+	c #E24849",
"%+	c #E2487C",
"&+	c #E248AF",
"*+	c #E248E2",
"=+	c #E27B00",
"-+	c #E27B16",
";+	c #E27B49",
">+	c #E27B7C",
",+	c #E27BAF",
"'+	c #E27BE2",
")+	c #E2AE00",
"!+	c #E2AE16",
"~+	c #E2AE49",
"{+	c #E2AE7C",
"]+	c #E2AEAF",
"^+	c #E2AEE2",
"/+	c #E2E100",
"(+	c #E2E116",
"_+	c #E2E149",
":+	c #E2E17C",
"<+	c #E2E1AF",
"[+	c #E2E1E2",
"}+	c #E2FF00",
"|+	c #E2FF16",
"1+	c #E2FF49",
"2+	c #E2FF7C",
"3+	c #E2FFAF",
"4+	c #E2FFE2",
"5+	c #001500",
"6+	c #002200",
"7+	c #002F00",
"8+	c #0B3D0B",
"9+	c #184A18",
"0+	c #265826",
"a+	c #336533",
"b+	c #407240",
"c+	c #4E804E",
"d+	c #5B8D5B",
"e+	c #699B69",
"f+	c #76A876",
"g+	c #84B684",
"h+	c #91C391",
"i+	c #9ED09E",
"j+	c #ACDEAC",
"k+	c #B9EBB9",
"l+	c #C7F9C7",
"m+	c #D4FFD4",
"n+	c #E2FFE2",
"o+	c #006100",
"p+	c #001563",
"q+	c #001900",
"r+	c #A12400",
"s+	c #004900",
"t+	c #5E199F",
"u+	c #00D200",
"v+	c #001A00",
"w+	c #00FF00",
"x+	c #83183D",
"y+	c #00AF00",
"z+	c #472C51",
"A+	c #007B00",
"B+	c #3A1680",
"C+	c #006E00",
"D+	c #001800",
"E+	c #00FF00",
"F+	c #3F1555",
"G+	c #008600",
"H+	c #95154F",
". . . . . . . + ",
"+ + + + @ + # $ ",
"+ @ # # # # % % ",
"+ @ # # # # % % ",
"+ @ # # # # % % ",
"+ @ # # # # % % ",
"+ @ # # # # % % ",
"+ @ # # # # % % ",
"+ @ # # # # % % ",
"+ @ # # # # % % ",
"+ @ # # # # % % ",
"+ @ # # # # % % ",
"+ @ # # # # % % ",
"+ @ # # # # % % ",
"+ @ # # # # % % ",
"+ @ # # # # % % ",
"+ @ # # # # % % ",
"+ @ # # # # % % ",
"+ @ # # # # % % ",
"+ @ # # # # % % ",
"+ @ # # # # % % ",
"+ @ # # # # % % ",
"+ @ # # # # % % ",
"+ @ # # # # % % ",
"+ @ # # # # % % ",
"+ @ # # # # % % ",
"+ @ # # # # % % ",
"+ @ # # # # % % ",
"+ @ # # # # % % ",
"+ @ # # # # % % ",
"+ @ # # # # % % ",
"+ @ # # # # % % ",
"+ @ # # # # % % ",
"+ @ # # # # % % ",
"+ @ # # # # % % ",
"+ @ # # # # % % ",
"+ @ # # # # % % ",
"+ @ # # # # % % ",
"+ @ # # # # % % ",
"+ @ # # # # % % ",
"+ @ # # # # % % ",
"+ @ # # # # % % ",
"+ @ # # # # % % ",
"+ @ # # # # % % ",
"+ @ # # # # % % ",
"+ @ # # # # % % ",
"+ @ # # # # % % ",
"+ @ # # # # % % ",
"+ @ # # # # % % ",
"+ @ # # # # % % ",
"+ @ # # # # % % ",
"+ @ # # # # % % ",
"+ @ # # # # % % ",
"+ @ # # # # % % ",
"+ @ # # # # % % ",
"+ @ # # # # % % ",
"+ @ # # # # % % ",
"+ @ # # # # % % ",
"+ @ # # # # % % ",
"+ @ # # # # % % ",
"+ @ # # # # % % ",
"+ @ # # # # % % ",
"+ @ # # # # % % ",
"+ @ # # # # % % ",
"+ @ # # # # % % ",
"+ @ # # # # % % ",
"+ @ # # # # % % ",
"+ @ # # # # % % ",
"+ @ # # # # % % ",
"+ @ # # # # % % ",
"+ @ # # # # % % ",
"+ @ # # # # % % ",
"+ @ # # # # % % ",
"+ @ # # # # % % ",
"+ @ # # # # % % ",
"+ @ # # # # % % ",
"+ @ # # # # % % ",
"+ @ # # # # % % ",
"+ @ # # # # % % ",
"+ @ # # # # % % ",
"+ @ # # # # % % ",
"+ @ # # # # % % ",
"+ @ # # # # % % ",
"+ @ # # # # % % ",
"+ @ # # # # % % ",
"+ @ # # # # % % ",
"+ @ # # # # % % ",
"+ @ # # # # % % ",
"+ @ # # # # % % ",
"+ @ # # # # % % ",
"+ @ # # # # % % ",
"+ @ # # # # % % ",
"+ @ # # # # % % ",
"+ @ # # # # % % ",
"+ @ # # # # % % ",
"+ @ # # # # % % ",
"+ @ # # # # % % ",
"+ @ # # # # % % ",
"+ @ # # # # % % ",
"+ @ # # # # % % ",
"+ @ # # # # % % ",
"+ @ # # # # % % ",
"+ @ # # # # % % ",
"+ @ # # # # % % ",
"+ @ # # # # % % ",
"+ @ # # # # % % ",
"+ @ # # # # % % ",
"+ @ # # # # % % ",
"+ @ # # # # % % ",
"+ @ # # # # % % ",
"+ @ # # # # % % ",
"+ @ # # # # % % ",
"+ @ # # # # % % ",
"+ @ # # # # % % ",
"+ @ # # # # % % ",
"+ @ # # # # % % ",
"+ @ # # # # % % ",
"+ @ # # # # % % ",
"+ @ # # # # % % ",
"+ @ # # # # % % ",
"+ @ # # # # % % ",
"+ @ # # # # % % ",
"+ @ # # # # % % ",
"+ @ # # # # % % ",
"+ @ # # # # % % ",
"+ @ # # # # % % ",
"+ @ # # # # % % ",
"+ @ # # # # % % ",
"+ @ # # # # % % ",
"+ @ # # # # % % ",
"+ @ # # # # % % ",
"+ @ # # # # % % ",
"+ @ # # # # % % ",
"+ @ # # # # % % ",
"+ @ # # # # % % ",
"+ @ # # # # % % ",
"+ @ # # # # % % ",
"@ $ % % % % % & ",
"$ % & & & & & % "};
