/* XPM */
char const * level_xpm[] = {
"8 139 522 2",
"  	c None",
". 	c #FD0D0E",
"+ 	c #FD0E0E",
"@ 	c #FD0E0D",
"# 	c #FD1A0E",
"$ 	c #FC1A0E",
"% 	c #FD270F",
"& 	c #FC270E",
"* 	c #FC260E",
"= 	c #FC260F",
"- 	c #FD270E",
"; 	c #FC320F",
"> 	c #FC320E",
", 	c #FC330E",
"' 	c #FD320F",
") 	c #FC330F",
"! 	c #FC3F0F",
"~ 	c #FC3E0F",
"{ 	c #FC4A0F",
"] 	c #FB4A0F",
"^ 	c #FC4B0F",
"/ 	c #FB4B0F",
"( 	c #FB4B10",
"_ 	c #FC5710",
": 	c #FC5610",
"< 	c #FC570F",
"[ 	c #FB570F",
"} 	c #FB5710",
"| 	c #FB6310",
"1 	c #FB6F10",
"2 	c #FA6F10",
"3 	c #FB7B10",
"4 	c #FA7B11",
"5 	c #FB7C11",
"6 	c #FA7B10",
"7 	c #FA7C10",
"8 	c #FB7B11",
"9 	c #FB8411",
"0 	c #FA8511",
"a 	c #FA8411",
"b 	c #FB8511",
"c 	c #FA8410",
"d 	c #FB8510",
"e 	c #FA8C10",
"f 	c #FA8C11",
"g 	c #FB8C11",
"h 	c #FA9411",
"i 	c #FA9511",
"j 	c #FA9C11",
"k 	c #F99C11",
"l 	c #FA9C12",
"m 	c #FAA411",
"n 	c #F9A411",
"o 	c #FAA412",
"p 	c #FAA311",
"q 	c #F9AC12",
"r 	c #FAAC12",
"s 	c #FAAC11",
"t 	c #FAAB12",
"u 	c #F9AC11",
"v 	c #F9B412",
"w 	c #FAB412",
"x 	c #F9B312",
"y 	c #F9B411",
"z 	c #FAB411",
"A 	c #F9BC11",
"B 	c #F9BB12",
"C 	c #F9BC12",
"D 	c #F9BB11",
"E 	c #F9C312",
"F 	c #F9C412",
"G 	c #F9CC12",
"H 	c #F9CC13",
"I 	c #F9CB12",
"J 	c #F9CB13",
"K 	c #F8CB12",
"L 	c #F8D313",
"M 	c #F9D312",
"N 	c #F8D312",
"O 	c #F9D313",
"P 	c #F9D413",
"Q 	c #F9DB13",
"R 	c #F9DB12",
"S 	c #F8DB13",
"T 	c #F8DB12",
"U 	c #F8E313",
"V 	c #F9E413",
"W 	c #F8E312",
"X 	c #F8EB13",
"Y 	c #F8EA13",
"Z 	c #F8EB12",
"` 	c #F6EE13",
" .	c #F6EF13",
"..	c #F7EE13",
"+.	c #F7EF13",
"@.	c #F6EE12",
"#.	c #F3EE13",
"$.	c #F3ED13",
"%.	c #F4ED13",
"&.	c #F3EE12",
"*.	c #F4EE13",
"=.	c #F4EE12",
"-.	c #F0EC12",
";.	c #F0ED13",
">.	c #F1ED13",
",.	c #F1ED12",
"'.	c #F1EC13",
").	c #F0ED12",
"!.	c #EDEC12",
"~.	c #EEEC12",
"{.	c #EDEC13",
"].	c #EDEB12",
"^.	c #EAEB12",
"/.	c #EBEB12",
"(.	c #E7EA11",
"_.	c #E7EA12",
":.	c #E8EA12",
"<.	c #E8EB12",
"[.	c #E4E911",
"}.	c #E5E912",
"|.	c #E5EA11",
"1.	c #E5E911",
"2.	c #E2E811",
"3.	c #E1E812",
"4.	c #E1E811",
"5.	c #DEE811",
"6.	c #DEE711",
"7.	c #DFE711",
"8.	c #DCE611",
"9.	c #DCE610",
"0.	c #DBE711",
"a.	c #DBE611",
"b.	c #D9E511",
"c.	c #D9E611",
"d.	c #D9E510",
"e.	c #D6E510",
"f.	c #D6E511",
"g.	c #D5E511",
"h.	c #D5E510",
"i.	c #D2E410",
"j.	c #D2E311",
"k.	c #D2E310",
"l.	c #CFE310",
"m.	c #D0E310",
"n.	c #CFE20F",
"o.	c #CFE30F",
"p.	c #CCE210",
"q.	c #CDE210",
"r.	c #CCE20F",
"s.	c #C9E110",
"t.	c #C9E10F",
"u.	c #CAE210",
"v.	c #CAE110",
"w.	c #C6E10F",
"x.	c #C7E010",
"y.	c #C6E00F",
"z.	c #C7E00F",
"A.	c #C3DF0F",
"B.	c #C4DF0F",
"C.	c #C3E00F",
"D.	c #C1DE0F",
"E.	c #C0DF0F",
"F.	c #C0DE0F",
"G.	c #C1DF0F",
"H.	c #C0DF0E",
"I.	c #BEDE0F",
"J.	c #BDDE0F",
"K.	c #BDDE0E",
"L.	c #BDDD0F",
"M.	c #BEDE0E",
"N.	c #BBDD0E",
"O.	c #BADD0F",
"P.	c #BBDD0F",
"Q.	c #B7DC0E",
"R.	c #B8DB0E",
"S.	c #B7DC0F",
"T.	c #B5DB0E",
"U.	c #B5DA0D",
"V.	c #B4DB0E",
"W.	c #B2DA0D",
"X.	c #B1DA0D",
"Y.	c #B1DA0E",
"Z.	c #B2DA0E",
"`.	c #AED90E",
" +	c #AFD90D",
".+	c #AFDA0E",
"++	c #AED90D",
"@+	c #AFD90E",
"#+	c #ACD80D",
"$+	c #ABD80D",
"%+	c #ACD90D",
"&+	c #ABD90D",
"*+	c #A8D70D",
"=+	c #A8D70C",
"-+	c #A9D70D",
";+	c #A5D70C",
">+	c #A5D60C",
",+	c #A5D70D",
"'+	c #A6D70D",
")+	c #A6D60D",
"!+	c #A6D70C",
"~+	c #A6D60C",
"{+	c #A3D50C",
"]+	c #A3D50D",
"^+	c #A3D60D",
"/+	c #A3D60C",
"(+	c #9FD50D",
"_+	c #9FD50C",
":+	c #A0D50D",
"<+	c #A0D50C",
"[+	c #A0D40D",
"}+	c #A0D40C",
"|+	c #9DD40C",
"1+	c #9CD40C",
"2+	c #9DD30C",
"3+	c #9AD30C",
"4+	c #99D30C",
"5+	c #9AD30B",
"6+	c #99D30B",
"7+	c #96D20B",
"8+	c #96D20C",
"9+	c #94D10C",
"0+	c #94D10B",
"a+	c #93D10B",
"b+	c #93D10C",
"c+	c #91D00B",
"d+	c #90D00B",
"e+	c #8ECF0B",
"f+	c #8DD00A",
"g+	c #8DCF0B",
"h+	c #8ED00A",
"i+	c #8ED00B",
"j+	c #8DD00B",
"k+	c #8ACE0A",
"l+	c #8BCE0B",
"m+	c #8BCE0A",
"n+	c #8BCF0A",
"o+	c #88CD0A",
"p+	c #88CD0B",
"q+	c #87CD0A",
"r+	c #87CE0A",
"s+	c #87CE0B",
"t+	c #84CC0A",
"u+	c #85CD0A",
"v+	c #85CC0A",
"w+	c #85CD0B",
"x+	c #84CD0A",
"y+	c #82CC0A",
"z+	c #82CB0A",
"A+	c #81CB0A",
"B+	c #81CB09",
"C+	c #7ECB0A",
"D+	c #7ECA0A",
"E+	c #7FCB09",
"F+	c #7FCB0A",
"G+	c #7ECB09",
"H+	c #7FCA0A",
"I+	c #7CCA0A",
"J+	c #7CCA09",
"K+	c #7BCA0A",
"L+	c #7BCA09",
"M+	c #7ACA0A",
"N+	c #7ACA09",
"O+	c #7AC909",
"P+	c #79C909",
"Q+	c #78C909",
"R+	c #78C90A",
"S+	c #79C809",
"T+	c #77C909",
"U+	c #76C90A",
"V+	c #77C809",
"W+	c #77C80A",
"X+	c #76C909",
"Y+	c #75C809",
"Z+	c #75C709",
"`+	c #73C709",
" @	c #73C809",
".@	c #74C709",
"+@	c #74C809",
"@@	c #73C708",
"#@	c #71C709",
"$@	c #71C609",
"%@	c #71C608",
"&@	c #71C708",
"*@	c #6FC608",
"=@	c #70C609",
"-@	c #70C608",
";@	c #70C709",
">@	c #6FC609",
",@	c #70C708",
"'@	c #6EC609",
")@	c #6EC608",
"!@	c #6EC508",
"~@	c #6DC608",
"{@	c #6CC508",
"]@	c #6DC509",
"^@	c #6AC508",
"/@	c #6BC508",
"(@	c #6BC408",
"_@	c #69C508",
":@	c #69C408",
"<@	c #68C408",
"[@	c #67C408",
"}@	c #68C407",
"|@	c #65C308",
"1@	c #65C408",
"2@	c #66C308",
"3@	c #64C308",
"4@	c #64C307",
"5@	c #63C208",
"6@	c #63C207",
"7@	c #62C208",
"8@	c #62C207",
"9@	c #61C208",
"0@	c #61C107",
"a@	c #60C207",
"b@	c #61C207",
"c@	c #5FC208",
"d@	c #5FC207",
"e@	c #5FC107",
"f@	c #5EC207",
"g@	c #5DC107",
"h@	c #5DC007",
"i@	c #5DC008",
"j@	c #5CC007",
"k@	c #5BC007",
"l@	c #5CC107",
"m@	c #59BF07",
"n@	c #59C006",
"o@	c #5AC007",
"p@	c #5ABF07",
"q@	c #59C007",
"r@	c #57BF07",
"s@	c #58BF06",
"t@	c #58BF07",
"u@	c #57C007",
"v@	c #57BF06",
"w@	c #58C007",
"x@	c #57BE07",
"y@	c #56BE07",
"z@	c #56BF06",
"A@	c #56BF07",
"B@	c #54BF07",
"C@	c #55BE06",
"D@	c #55BE07",
"E@	c #54BE06",
"F@	c #53BD06",
"G@	c #53BD07",
"H@	c #52BE07",
"I@	c #53BE06",
"J@	c #52BE06",
"K@	c #51BD06",
"L@	c #51BE06",
"M@	c #4FBD06",
"N@	c #50BD06",
"O@	c #50BC06",
"P@	c #4FBC07",
"Q@	c #4FBC06",
"R@	c #4EBD06",
"S@	c #4DBC05",
"T@	c #4DBC06",
"U@	c #4EBC06",
"V@	c #4EBC05",
"W@	c #4CBC05",
"X@	c #4CBB06",
"Y@	c #4CBC06",
"Z@	c #4BBB05",
"`@	c #4ABB06",
" #	c #4ABC05",
".#	c #4ABB05",
"+#	c #4BBB06",
"@#	c #48BA06",
"##	c #49BB06",
"$#	c #48BA05",
"%#	c #48BB06",
"&#	c #49BB05",
"*#	c #46BA06",
"=#	c #47BA06",
"-#	c #47BA05",
";#	c #46BA05",
">#	c #45BA06",
",#	c #45BA05",
"'#	c #45B906",
")#	c #44B905",
"!#	c #44BA05",
"~#	c #43B906",
"{#	c #43B905",
"]#	c #43BA05",
"^#	c #41B905",
"/#	c #41B906",
"(#	c #42B905",
"_#	c #42B805",
":#	c #40B805",
"<#	c #40B804",
"[#	c #40B905",
"}#	c #3FB805",
"|#	c #3EB704",
"1#	c #3EB805",
"2#	c #3EB705",
"3#	c #3FB705",
"4#	c #3DB705",
"5#	c #3DB704",
"6#	c #3CB705",
"7#	c #3CB704",
"8#	c #3BB604",
"9#	c #3BB705",
"0#	c #3BB605",
"a#	c #3AB605",
"b#	c #39B604",
"c#	c #39B605",
"d#	c #3AB604",
"e#	c #38B604",
"f#	c #38B504",
"g#	c #37B504",
"h#	c #37B604",
"i#	c #38B605",
"j#	c #36B504",
"k#	c #35B504",
"l#	c #34B504",
"m#	c #34B404",
"n#	c #32B404",
"o#	c #33B403",
"p#	c #30B404",
"q#	c #31B404",
"r#	c #31B304",
"s#	c #31B403",
"t#	c #30B304",
"u#	c #2FB304",
"v#	c #2FB303",
"w#	c #2DB303",
"x#	c #2DB304",
"y#	c #2DB203",
"z#	c #2DB204",
"A#	c #2CB204",
"B#	c #2BB203",
"C#	c #2BB204",
"D#	c #2AB103",
"E#	c #29B203",
"F#	c #29B103",
"G#	c #2AB203",
"H#	c #28B103",
"I#	c #26B003",
"J#	c #26B103",
"K#	c #27B102",
"L#	c #27B003",
"M#	c #24AF02",
"N#	c #25B003",
"O#	c #24B003",
"P#	c #24AF03",
"Q#	c #25B002",
"R#	c #25AF02",
"S#	c #23AF03",
"T#	c #23B003",
"U#	c #23AF02",
"V#	c #21AF03",
"W#	c #21AF02",
"X#	c #22AF03",
"Y#	c #20AF03",
"Z#	c #20AF02",
"`#	c #1FAE02",
" $	c #1FAF02",
".$	c #1EAE03",
"+$	c #1EAE02",
"@$	c #1EAD02",
"#$	c #1EAD03",
"$$	c #1CAE02",
"%$	c #1CAE03",
"&$	c #1CAD03",
"*$	c #1DAD02",
"=$	c #1AAD02",
"-$	c #1BAD02",
";$	c #19AC02",
">$	c #18AC01",
",$	c #19AC01",
"'$	c #18AC02",
")$	c #17AC02",
"!$	c #17AC01",
"~$	c #17AB02",
"{$	c #15AC02",
"]$	c #15AB02",
"^$	c #15AC01",
"/$	c #13AB02",
"($	c #14AB01",
"_$	c #14AB02",
":$	c #13AB01",
"<$	c #12AA01",
"[$	c #12AA02",
"}$	c #10AA01",
"|$	c #10AA02",
"1$	c #0FA901",
"2$	c #0EA902",
"3$	c #0FAA01",
"4$	c #0EA901",
"5$	c #0CA901",
"6$	c #0DA901",
"7$	c #0BA801",
"8$	c #0AA801",
"9$	c #0AA700",
"0$	c #09A801",
"a$	c #0AA701",
"b$	c #09A701",
"c$	c #07A701",
"d$	c #08A801",
"e$	c #07A801",
"f$	c #08A700",
"g$	c #08A800",
"h$	c #07A700",
"i$	c #08A701",
"j$	c #06A701",
"k$	c #06A600",
"l$	c #06A700",
"m$	c #04A600",
"n$	c #05A601",
"o$	c #04A601",
"p$	c #05A600",
"q$	c #02A600",
"r$	c #03A600",
"s$	c #03A500",
"t$	c #01A500",
"u$	c #00A500",
"v$	c #01A501",
"w$	c #01A600",
". + + + . + + . ",
"+ @ + + + . + @ ",
"# $ # $ # # # # ",
"% & * * * = = - ",
"; ; > , ' ) > ) ",
"! ~ ~ ~ ~ ! ~ ! ",
"{ ] ^ ^ ^ / ] ( ",
"_ : < [ [ [ [ } ",
"| | | | | | | | ",
"1 1 2 1 1 1 1 2 ",
"3 4 3 5 6 7 5 8 ",
"9 0 a b c d 9 0 ",
"e e f f f f g e ",
"h h h i h i h h ",
"j j j k j k k l ",
"m n o m n n m p ",
"q r q q s t u u ",
"v w w v x y z y ",
"A B C B B C D B ",
"E E F F E E E E ",
"G H I I J K G G ",
"L M N O O M P O ",
"Q Q R R S R T Q ",
"U V W U U U W W ",
"X X X X Y Z X X ",
"`  ...+.+. . .@.",
"#.$.%.&.*.&.&.=.",
"-.;.>.>.,.;.'.).",
"!.~.{.~.].!.~.!.",
"^./.^./.^./././.",
"(._._.:.<.<._._.",
"[.}.[.|.1.1.[.}.",
"2.3.2.4.2.2.3.2.",
"5.6.6.5.5.7.5.6.",
"8.9.0.0.8.0.a.0.",
"b.c.c.c.c.c.c.d.",
"e.f.g.e.g.h.g.e.",
"i.i.i.i.j.k.k.i.",
"l.m.l.m.n.m.o.m.",
"p.q.q.r.q.q.q.p.",
"s.t.s.t.t.u.s.v.",
"w.x.y.z.z.w.y.z.",
"A.B.A.B.B.B.C.B.",
"D.D.E.F.D.G.G.H.",
"I.J.K.I.L.J.J.M.",
"N.N.N.N.O.P.N.N.",
"Q.R.Q.Q.S.Q.S.R.",
"T.T.T.U.V.T.T.T.",
"W.X.X.W.X.Y.Z.Y.",
"`. + +.+++`.@+++",
"#+#+$+#+#+$+%+&+",
"*+*+*+*+*+=+*+-+",
";+>+,+'+>+)+!+~+",
"{+]+]+^+/+/+{+/+",
"(+_+_+:+<+<+[+}+",
"|+1+|+|+2+1+2+|+",
"3+4+5+5+4+4+3+6+",
"7+8+8+7+8+7+7+8+",
"9+0+0+0+0+a+9+b+",
"c+c+d+c+c+c+d+c+",
"e+e+f+g+h+g+i+j+",
"k+k+k+l+m+n+l+l+",
"o+p+q+q+r+q+q+s+",
"t+u+v+w+x+u+v+x+",
"y+z+y+A+B+A+A+A+",
"C+D+E+F+C+F+G+H+",
"I+J+J+I+I+J+K+L+",
"M+N+O+N+O+N+O+O+",
"P+Q+R+Q+P+Q+S+R+",
"T+U+T+T+T+V+W+X+",
"Y+Y+Z+Y+Y+Y+Y+Y+",
"`+ @.@ @+@`+@@`+",
"#@$@%@#@#@&@#@&@",
"*@=@*@-@;@-@>@,@",
"'@'@)@!@'@'@'@'@",
"~@{@{@{@~@{@{@]@",
"^@/@(@/@(@/@^@^@",
"_@:@<@:@:@:@:@_@",
"[@[@[@[@[@}@<@<@",
"|@1@|@2@2@2@|@|@",
"3@3@4@5@3@3@6@3@",
"7@7@8@8@7@8@7@8@",
"9@9@0@0@a@a@b@0@",
"c@d@e@e@e@e@e@f@",
"g@g@g@h@g@i@g@g@",
"j@j@k@k@j@j@l@k@",
"m@n@o@o@p@q@p@o@",
"r@s@t@u@v@t@w@t@",
"x@y@z@A@v@A@A@A@",
"B@C@B@D@C@E@D@C@",
"F@G@H@I@I@I@J@F@",
"K@K@H@L@K@K@K@K@",
"M@N@M@O@P@Q@N@M@",
"R@S@T@U@U@V@T@T@",
"W@X@W@Y@X@Y@Y@Y@",
"Z@`@ #`@.#`@+#`@",
"@###$#%#&#&###$#",
"*#=#-#=#;#=#;#*#",
">#;#,#'#'#;#'#,#",
")#!#~#~#{#]#)#)#",
"^#/#(#(#(#_#(#^#",
":#:#<#[#:#:#:#:#",
"}#|#1#}#2#1#3#1#",
"4#4#4#5#6#7#7#4#",
"8#9#0#0#9#0#0#a#",
"b#c#c#c#b#b#d#c#",
"e#f#g#h#e#e#f#i#",
"j#j#k#j#j#j#k#j#",
"l#m#l#l#l#l#l#m#",
"n#o#n#n#n#n#n#n#",
"p#q#r#p#s#t#r#s#",
"u#u#u#u#u#v#u#v#",
"w#x#y#y#w#z#w#w#",
"A#B#A#C#A#B#B#C#",
"D#D#E#F#E#D#G#D#",
"H#H#H#H#H#H#H#H#",
"I#J#K#L#I#L#I#J#",
"M#N#O#M#P#N#Q#R#",
"S#T#T#S#T#S#S#U#",
"V#W#V#W#V#X#V#V#",
"Y#Z#`# $`#`#Z#Z#",
".$.$+$@$+$.$#$+$",
"$$%$$$&$*$$$$$*$",
"=$-$=$=$-$=$=$=$",
";$>$;$,$'$;$;$>$",
")$)$)$!$!$!$!$~$",
"{$]${$^$]$^$^$^$",
"/$/$($/$($_$:$($",
"<$<$<$[$<$[$<$[$",
"}$|$}$}$|$}$|$}$",
"1$2$3$3$1$4$4$1$",
"5$6$6$5$6$6$6$6$",
"7$7$7$7$7$7$7$7$",
"8$9$8$8$0$a$0$b$",
"c$d$e$f$g$h$i$f$",
"j$k$l$j$l$l$l$j$",
"m$n$o$m$m$m$m$p$",
"q$q$q$r$q$s$r$r$",
"t$u$t$t$v$t$w$t$"};
