/* XPM */
char const * matrix_yellow_xpm[] = {
"32 12 257 2",
"  	c None",
". 	c #000000",
"+ 	c #080000",
"@ 	c #080808",
"# 	c #080810",
"$ 	c #001008",
"% 	c #101010",
"& 	c #181010",
"* 	c #002010",
"= 	c #101818",
"- 	c #181818",
"; 	c #201818",
"> 	c #002918",
", 	c #202018",
"' 	c #003118",
") 	c #202020",
"! 	c #202029",
"~ 	c #292020",
"{ 	c #202920",
"] 	c #392020",
"^ 	c #292920",
"/ 	c #292929",
"( 	c #004120",
"_ 	c #293131",
": 	c #412920",
"< 	c #313131",
"[ 	c #104A29",
"} 	c #393939",
"| 	c #394139",
"1 	c #414141",
"2 	c #20524A",
"3 	c #414152",
"4 	c #4A4141",
"5 	c #414A41",
"6 	c #4A4A41",
"7 	c #4A4A4A",
"8 	c #524A41",
"9 	c #4A524A",
"0 	c #525252",
"a 	c #734A29",
"b 	c #525A52",
"c 	c #5A5A52",
"d 	c #625A4A",
"e 	c #317B20",
"f 	c #5A625A",
"g 	c #62625A",
"h 	c #626A62",
"i 	c #6A6A62",
"j 	c #6A6A6A",
"k 	c #736A62",
"l 	c #737373",
"m 	c #7B736A",
"n 	c #737383",
"o 	c #9C7329",
"p 	c #737B73",
"q 	c #737B7B",
"r 	c #7B7B73",
"s 	c #7B7B7B",
"t 	c #AC6A5A",
"u 	c #7B8373",
"v 	c #7B837B",
"w 	c #83837B",
"x 	c #838383",
"y 	c #838B83",
"z 	c #8B8B83",
"A 	c #8B8B8B",
"B 	c #8B948B",
"C 	c #94948B",
"D 	c #949494",
"E 	c #949C94",
"F 	c #949C9C",
"G 	c #9C9C94",
"H 	c #9C9C9C",
"I 	c #9CA49C",
"J 	c #9CA4A4",
"K 	c #A4A49C",
"L 	c #A4A4A4",
"M 	c #C5A45A",
"N 	c #A4ACA4",
"O 	c #ACACA4",
"P 	c #ACACAC",
"Q 	c #B4B4AC",
"R 	c #C5B48B",
"S 	c #BDBDB4",
"T 	c #C5C5BD",
"U 	c #CDCDCD",
"V 	c #D5D5CD",
"W 	c #F6CDCD",
"X 	c #DEDED5",
"Y 	c #DEE6DE",
"Z 	c #E6E6E6",
"` 	c #EEEEEE",
" .	c #F6EEEE",
"..	c #F6F6F6",
"+.	c #F6FFFF",
"@.	c #FFFFFF",
"#.	c #6699FF",
"$.	c #66CC00",
"%.	c #66CC33",
"&.	c #66CC66",
"*.	c #66CC99",
"=.	c #66CCCC",
"-.	c #66CCFF",
";.	c #66FF00",
">.	c #66FF33",
",.	c #66FF66",
"'.	c #66FF99",
").	c #66FFCC",
"!.	c #66FFFF",
"~.	c #990000",
"{.	c #990033",
"].	c #990066",
"^.	c #990099",
"/.	c #9900CC",
"(.	c #9900FF",
"_.	c #993300",
":.	c #993333",
"<.	c #993366",
"[.	c #993399",
"}.	c #9933CC",
"|.	c #9933FF",
"1.	c #996600",
"2.	c #996633",
"3.	c #996666",
"4.	c #996699",
"5.	c #9966CC",
"6.	c #9966FF",
"7.	c #999900",
"8.	c #999933",
"9.	c #999966",
"0.	c #999999",
"a.	c #9999CC",
"b.	c #9999FF",
"c.	c #99CC00",
"d.	c #99CC33",
"e.	c #99CC66",
"f.	c #99CC99",
"g.	c #99CCCC",
"h.	c #99CCFF",
"i.	c #99FF00",
"j.	c #99FF33",
"k.	c #99FF66",
"l.	c #99FF99",
"m.	c #99FFCC",
"n.	c #99FFFF",
"o.	c #CC0000",
"p.	c #CC0033",
"q.	c #CC0066",
"r.	c #CC0099",
"s.	c #CC00CC",
"t.	c #CC00FF",
"u.	c #CC3300",
"v.	c #CC3333",
"w.	c #CC3366",
"x.	c #CC3399",
"y.	c #CC33CC",
"z.	c #CC33FF",
"A.	c #CC6600",
"B.	c #CC6633",
"C.	c #CC6666",
"D.	c #CC6699",
"E.	c #CC66CC",
"F.	c #CC66FF",
"G.	c #CC9900",
"H.	c #CC9933",
"I.	c #CC9966",
"J.	c #CC9999",
"K.	c #CC99CC",
"L.	c #CC99FF",
"M.	c #CCCC00",
"N.	c #CCCC33",
"O.	c #CCCC66",
"P.	c #CCCC99",
"Q.	c #CCCCCC",
"R.	c #CCCCFF",
"S.	c #CCFF00",
"T.	c #CCFF33",
"U.	c #CCFF66",
"V.	c #CCFF99",
"W.	c #CCFFCC",
"X.	c #CCFFFF",
"Y.	c #FF0000",
"Z.	c #FF0033",
"`.	c #FF0066",
" +	c #FF0099",
".+	c #FF00CC",
"++	c #FF00FF",
"@+	c #FF3300",
"#+	c #FF3333",
"$+	c #FF3366",
"%+	c #FF3399",
"&+	c #FF33CC",
"*+	c #FF33FF",
"=+	c #FF6600",
"-+	c #FF6633",
";+	c #FF6666",
">+	c #FF6699",
",+	c #FF66CC",
"'+	c #FF66FF",
")+	c #FF9900",
"!+	c #FF9933",
"~+	c #FF9966",
"{+	c #FF9999",
"]+	c #FF99CC",
"^+	c #FF99FF",
"/+	c #FFCC00",
"(+	c #FFCC33",
"_+	c #FFCC66",
":+	c #FFCC99",
"<+	c #FFCCCC",
"[+	c #FFCCFF",
"}+	c #FFFF00",
"|+	c #FFFF33",
"1+	c #FFFF66",
"2+	c #FFFF99",
"3+	c #FFFFCC",
"4+	c #FFFFFF",
"5+	c #000000",
"6+	c #0D0D0D",
"7+	c #1A1A1A",
"8+	c #282828",
"9+	c #353535",
"0+	c #434343",
"a+	c #505050",
"b+	c #5D5D5D",
"c+	c #6B6B6B",
"d+	c #787878",
"e+	c #868686",
"f+	c #939393",
"g+	c #A1A1A1",
"h+	c #AEAEAE",
"i+	c #BBBBBB",
"j+	c #C9C9C9",
"k+	c #D6D6D6",
"l+	c #E4E4E4",
"m+	c #F1F1F1",
"n+	c #FFFFFF",
"o+	c #52524A",
"p+	c #524A52",
"q+	c #4A4A4A",
"r+	c #625A4A",
"s+	c #00005A",
"t+	c #311800",
"u+	c #291800",
"v+	c #412000",
"w+	c #311800",
"x+	c #311800",
"y+	c #311800",
"z+	c #412000",
"A+	c #4A2900",
"B+	c #000010",
"C+	c #4A4100",
"D+	c #4A4141",
"E+	c #4A4141",
"F+	c #292041",
"G+	c #8B8B29",
"H+	c #8B8B8B",
"T V T T T T T T T T T T T T T T T T T T T T T T T T T T T T C v ",
"T _+/+/+/+/+/+/+/+/+/+/+/+/+/+/+/+/+/+/+/+/+/+/+/+/+/+/+/+/+f v ",
"O G._+_+_+_+_+_+_+_+_+_+_+_+_+_+_+_+_+_+_+_+_+_+_+_+_+_+_+G.| v ",
"Q G./+_+_+_+_+_+_+_+_+_+_+_+_+_+_+_+_+_+_+_+_+_+_+_+_+/+_+G.4 v ",
"O G./+_+_+_+_+_+_+_+_+_+_+_+_+_+_+_+_+_+_+_+_+_+_+_+_+/+_+G.5 v ",
"Q G._+_+_+_+_+_+_+_+_+_+_+_+_+_+_+_+_+_+_+_+_+_+_+_+_+/+_+G.6 v ",
"O G./+_+_+_+_+_+_+_+_+_+_+_+_+_+_+_+_+_+_+_+_+_+_+_+_+/+_+G.6 v ",
"Q A._+_+_+_+_+_+_+_+_+_+_+_+_+_+_+_+_+_+_+_+_+_+_+_+_+/+_+G.6 v ",
"O G./+_+_+_+_+_+_+_+_+_+_+_+_+_+_+_+_+_+_+_+_+_+_+_+_+/+/+G.6 v ",
"Q A./+/+/+/+/+/+/+/+/+/+/+/+/+/+/+/+/+/+/+/+/+/+/+/+/+/+_+/+4 v ",
"O G.G.G.G.G.G.G.G.G.G.G.G.G.G.G.G.G.G.G.G.G.G.G.G.G.G.G.A.G.6 s ",
"S C k h i h h h h h h h h h h h h h h h h h h h h h h i g f 6 v "};
