/* XPM */
char * matrix_mute_xpm[] = {
"32 12 25 1",
" 	c None",
".	c #C5C5BD",
"+	c #D5D5CD",
"@	c #94948B",
"#	c #7B837B",
"$	c #B35A00",
"%	c #DE8C00",
"&	c #FFC128",
"*	c #CC9900",
"=	c #700909",
"-	c #5A625A",
";	c #ACACA4",
">	c #394139",
",	c #B4B4AC",
"'	c #4A4141",
")	c #872100",
"!	c #414A41",
"~	c #4A4A41",
"{	c #CC6600",
"]	c #7B7B7B",
"^	c #BDBDB4",
"/	c #736A62",
"(	c #626A62",
"_	c #6A6A62",
":	c #62625A",
".+............................@#",
".$%&*************************=-#",
";$%%%%%%%%%%%%%%%%%%%%%%%%%%%=>#",
",$%%%%%%%%%%%%%%%%%%%%%%%%%%%='#",
";$%%%%%%%%%%%%%%%%%%%%%%%%%%%)!#",
",$%*%%%%%%%%%%%%%%%%%%%%%%%%%)~#",
";$%%%%%%%%%%%%%%%%%%%%%%%%%%%=~#",
",$$%%%%%%%%%%%%%%%%%%%%%%%%%%)~#",
";$%*%%%%%%%%%%%%%%%%%%%%%%%%%=~#",
",$%$%%%%%%%%%%%%%%%%%%%%%%%%$)'#",
";***************************{*~]",
"^@/(_((((((((((((((((((((((_:-~#"};
