/* XPM */
char * matrix_grey_o_xpm[] = {
"32 12 22 1",
" 	c None",
".	c #6F776F",
"+	c #989898",
"@	c #7F7F7F",
"#	c #909088",
"$	c #909890",
"%	c #777777",
"&	c #949494",
"*	c #909898",
"=	c #777F77",
"-	c #98A098",
";	c #A0A0A0",
">	c #949493",
",	c #949394",
"'	c #939494",
")	c #939394",
"!	c #939493",
"~	c #949393",
"{	c #939393",
"]	c #A8A8A0",
"^	c #889088",
"/	c #B1B1A8",
"................................",
"+@............................#$",
"+%&&&&&&&&&&&&&&&&&&&&&&&&&&&&$*",
"*=&&&&&&&&&&&&&&&&&&&&&&&&&&&&--",
"*=&&&&&&&&&&&&&&&&&&&&&&&&&&&&;-",
"*=>&&&,&'>&>,>>&&&&&&&&&&&&&&);-",
"*=&!,&&!,&!>&''~,&~')&&&~&&&&>;-",
"*=&~&,&>''&,'&,&>&')'~'&>&>'&);-",
"*@{>!&!!~&,~>'&&,&>~&'>>'>>'&!]-",
"*^>>~{,~{{))>!~'>!~~>!,&)&){!~]-",
"**;///////////////////////////]+",
"$*--;;;;;;;;;;;;;;;;;;;;;;;;;;+*"};
