/* XPM */
char * matrix_white_xpm[] = {
"32 12 257 2",
"  	c None",
". 	c #000000",
"+ 	c #080808",
"@ 	c #080810",
"# 	c #001008",
"$ 	c #101010",
"% 	c #181010",
"& 	c #002010",
"* 	c #101818",
"= 	c #181818",
"- 	c #002918",
"; 	c #202018",
"> 	c #003118",
", 	c #202020",
"' 	c #202029",
") 	c #292020",
"! 	c #202920",
"~ 	c #292920",
"{ 	c #292929",
"] 	c #004120",
"^ 	c #293131",
"/ 	c #313131",
"( 	c #104A29",
"_ 	c #393939",
": 	c #394139",
"< 	c #414141",
"[ 	c #20524A",
"} 	c #4A4141",
"| 	c #414A41",
"1 	c #4A4A41",
"2 	c #4A4A4A",
"3 	c #524A41",
"4 	c #4A524A",
"5 	c #525252",
"6 	c #525A52",
"7 	c #5A5A52",
"8 	c #625A4A",
"9 	c #317B20",
"0 	c #5A625A",
"a 	c #62625A",
"b 	c #626A62",
"c 	c #6A6A62",
"d 	c #6A6A6A",
"e 	c #736A62",
"f 	c #737373",
"g 	c #7B736A",
"h 	c #737B73",
"i 	c #737B7B",
"j 	c #7B7B73",
"k 	c #7B7B7B",
"l 	c #7B8373",
"m 	c #7B837B",
"n 	c #83837B",
"o 	c #838383",
"p 	c #838B83",
"q 	c #8B8B83",
"r 	c #8B8B8B",
"s 	c #8B948B",
"t 	c #94948B",
"u 	c #949494",
"v 	c #949C94",
"w 	c #949C9C",
"x 	c #9C9C94",
"y 	c #9C9C9C",
"z 	c #9CA49C",
"A 	c #9CA4A4",
"B 	c #A4A49C",
"C 	c #A4A4A4",
"D 	c #A4ACA4",
"E 	c #ACACA4",
"F 	c #ACACAC",
"G 	c #B4B4AC",
"H 	c #BDBDB4",
"I 	c #C5C5BD",
"J 	c #CDCDCD",
"K 	c #D5D5CD",
"L 	c #DEDED5",
"M 	c #DEE6DE",
"N 	c #E6E6E6",
"O 	c #EEEEEE",
"P 	c #F6EEEE",
"Q 	c #F6F6F6",
"R 	c #F6FFFF",
"S 	c #FFFFFF",
"T 	c #6633FF",
"U 	c #666600",
"V 	c #666633",
"W 	c #666666",
"X 	c #666699",
"Y 	c #6666CC",
"Z 	c #6666FF",
"` 	c #669900",
" .	c #669933",
"..	c #669966",
"+.	c #669999",
"@.	c #6699CC",
"#.	c #6699FF",
"$.	c #66CC00",
"%.	c #66CC33",
"&.	c #66CC66",
"*.	c #66CC99",
"=.	c #66CCCC",
"-.	c #66CCFF",
";.	c #66FF00",
">.	c #66FF33",
",.	c #66FF66",
"'.	c #66FF99",
").	c #66FFCC",
"!.	c #66FFFF",
"~.	c #990000",
"{.	c #990033",
"].	c #990066",
"^.	c #990099",
"/.	c #9900CC",
"(.	c #9900FF",
"_.	c #993300",
":.	c #993333",
"<.	c #993366",
"[.	c #993399",
"}.	c #9933CC",
"|.	c #9933FF",
"1.	c #996600",
"2.	c #996633",
"3.	c #996666",
"4.	c #996699",
"5.	c #9966CC",
"6.	c #9966FF",
"7.	c #999900",
"8.	c #999933",
"9.	c #999966",
"0.	c #999999",
"a.	c #9999CC",
"b.	c #9999FF",
"c.	c #99CC00",
"d.	c #99CC33",
"e.	c #99CC66",
"f.	c #99CC99",
"g.	c #99CCCC",
"h.	c #99CCFF",
"i.	c #99FF00",
"j.	c #99FF33",
"k.	c #99FF66",
"l.	c #99FF99",
"m.	c #99FFCC",
"n.	c #99FFFF",
"o.	c #CC0000",
"p.	c #CC0033",
"q.	c #CC0066",
"r.	c #CC0099",
"s.	c #CC00CC",
"t.	c #CC00FF",
"u.	c #CC3300",
"v.	c #CC3333",
"w.	c #CC3366",
"x.	c #CC3399",
"y.	c #CC33CC",
"z.	c #CC33FF",
"A.	c #CC6600",
"B.	c #CC6633",
"C.	c #CC6666",
"D.	c #CC6699",
"E.	c #CC66CC",
"F.	c #CC66FF",
"G.	c #CC9900",
"H.	c #CC9933",
"I.	c #CC9966",
"J.	c #CC9999",
"K.	c #CC99CC",
"L.	c #CC99FF",
"M.	c #CCCC00",
"N.	c #CCCC33",
"O.	c #CCCC66",
"P.	c #CCCC99",
"Q.	c #CCCCCC",
"R.	c #CCCCFF",
"S.	c #CCFF00",
"T.	c #CCFF33",
"U.	c #CCFF66",
"V.	c #CCFF99",
"W.	c #CCFFCC",
"X.	c #CCFFFF",
"Y.	c #FF0000",
"Z.	c #FF0033",
"`.	c #FF0066",
" +	c #FF0099",
".+	c #FF00CC",
"++	c #FF00FF",
"@+	c #FF3300",
"#+	c #FF3333",
"$+	c #FF3366",
"%+	c #FF3399",
"&+	c #FF33CC",
"*+	c #FF33FF",
"=+	c #FF6600",
"-+	c #FF6633",
";+	c #FF6666",
">+	c #FF6699",
",+	c #FF66CC",
"'+	c #FF66FF",
")+	c #FF9900",
"!+	c #FF9933",
"~+	c #FF9966",
"{+	c #FF9999",
"]+	c #FF99CC",
"^+	c #FF99FF",
"/+	c #FFCC00",
"(+	c #FFCC33",
"_+	c #FFCC66",
":+	c #FFCC99",
"<+	c #FFCCCC",
"[+	c #FFCCFF",
"}+	c #FFFF00",
"|+	c #FFFF33",
"1+	c #FFFF66",
"2+	c #FFFF99",
"3+	c #FFFFCC",
"4+	c #FFFFFF",
"5+	c #000000",
"6+	c #0D0D0D",
"7+	c #1A1A1A",
"8+	c #282828",
"9+	c #353535",
"0+	c #434343",
"a+	c #505050",
"b+	c #5D5D5D",
"c+	c #6B6B6B",
"d+	c #787878",
"e+	c #868686",
"f+	c #939393",
"g+	c #A1A1A1",
"h+	c #AEAEAE",
"i+	c #BBBBBB",
"j+	c #C9C9C9",
"k+	c #D6D6D6",
"l+	c #E4E4E4",
"m+	c #F1F1F1",
"n+	c #FFFFFF",
"o+	c #0099FF",
"p+	c #00CCFF",
"q+	c #00FFFF",
"r+	c #3300FF",
"s+	c #3333FF",
"t+	c #3366FF",
"u+	c #3399FF",
"v+	c #33CCFF",
"w+	c #33FFFF",
"x+	c #6600FF",
"y+	c #6633FF",
"z+	c #6666FF",
"A+	c #6699FF",
"B+	c #66CCFF",
"C+	c #66FFFF",
"D+	c #9900FF",
"E+	c #9933FF",
"F+	c #9966FF",
"G+	c #9999FF",
"H+	c #99CCFF",
"I K I I I I I I I I I I I I I I I I I I I I I I I I I I I I t m ",
"I N R S S S S S S S S S S S S S S S S S S S S S S S S S S S 0 m ",
"E L Q Q Q Q Q Q Q Q Q Q Q Q Q Q Q Q Q Q Q Q Q Q Q Q Q R Q O : m ",
"G L P O O O O O O O O O O O O O O O O O O O O O O O O O O L } m ",
"E L P O O O O O O O O O O O O O O O O O O O O O O O O P O L | m ",
"G L P O O O O O O O O O O O O O O O O O O O O O O O O P O L 1 m ",
"E L P O O O O O O O O O O O O O O O O O O O O O O O O P O L 1 m ",
"G L Q O O O O O O O O O O O O O O O O O O O O O O O O P O L 1 m ",
"E L P O O O O O O O O O O O O O O O O O O O O O O O O P O L 1 m ",
"G L P O O P P P P P P P P P P P P P P P P P P P P P P P O M } m ",
"E L J L L L L L L L L L L L L L L L L L L L L L L L L M J E 1 k ",
"H t e b c b b b b b b b b b b b b b b b b b b b b b b c a 0 1 m "};
