/* XPM */
char * mute_xpm[] = {
"13 26 30 1",
" 	c None",
".	c #1B7B1B",
"+	c #2F5F2F",
"@	c #434343",
"#	c #7A817A",
"$	c #DE8C00",
"%	c #872100",
"&	c #B35A00",
"*	c #FFCC00",
"=	c #FFFF00",
"-	c #700909",
";	c #272727",
">	c #FFCC66",
",	c #FFFFFF",
"'	c #001B40",
")	c #191919",
"!	c #000D00",
"~	c #000500",
"{	c #000000",
"]	c #3D3E3D",
"^	c #4A1B00",
"/	c #0B0000",
"(	c #3B0C00",
"_	c #5C4C1C",
":	c #5C3C00",
"<	c #3D1600",
"[	c #6D3E00",
"}	c #CDCDCD",
"|	c #0D0000",
"1	c #8E6E1E",
".+@@@@@@@@@+#",
"$$$$$$$$$$$$%",
"&*=********-;",
"&$>,>>>>>,>-;",
"&$>,,>>>,,>-;",
"&$>,,>>>,,>%;",
"&$=,>,>,>,>%;",
"&$>,>,>,>,>-;",
"&&>,>>,>>,>%;",
"&$=,>>,>>,>-;",
"&$&>>>>>>>&%;",
"&-;;'''''';';",
";))))))))))))",
"!~{{{{{{{{{~]",
"^^^^^^^^^^^^{",
"/(_::::::::{{",
"<[[[[[[[[[[{{",
"<[[}[[[[[}[{{",
"<[[}}[[[}}[|{",
"<[1}}[[[}}[|{",
"<[[}[}[}[}[{{",
"<<[}[}[}[}[|{",
"<[1}[[}[[}[{{",
"<[<}[[}[[}<|{",
"<{{{{{{{{{{{{",
"{{{{{{{{{{{{{"};
