/* XPM */
char const * output_r_xpm[] = {
"36 208 6 1",
" 	c #595966",
".	c #2E3038",
"+	c #000000",
"@	c #27272B",
"#	c #616176",
"$	c #737384",
"                                    ",
" .................................. ",
" .................................. ",
" .................................. ",
" ..++++++++++++++++++++++++++++++.. ",
" ..++++++++++++++++++++++++++++++.. ",
" ..++++++++++++++++++++++++++++++.. ",
" ..++++++++++++++++++++++++++++++.. ",
" ..++++++++++++++++++++++++++++++.. ",
" ..++++++++++++++++++++++++++++++.. ",
" ..++++++++++++++++++++++++++++++.. ",
" ..++++++++++++++++++++++++++++++.. ",
" ..++++++++++++++++++++++++++++++.. ",
" ..++++++++++++++++++++++++++++++.. ",
" ..++++++++++++++++++++++++++++++.. ",
" ..++++++++++++++++++++++++++++++.. ",
" ..++++++++++++++++++++++++++++++.. ",
" .................................. ",
" .................................. ",
" .................................. ",
" .................................. ",
" .................................. ",
" .................................. ",
" .................................. ",
" .................................. ",
" ..................++++++++++...... ",
" ........@#........++++++++++...... ",
" ........@#........++++++++++...... ",
" ........@#........++++++++++...... ",
" ........@#........++++++++++...... ",
" ........@#........++++++++++...... ",
" ........@#........++++++++++...... ",
" ........@#........++++++++++...... ",
" ........@#........++++++++++...... ",
" ........@#........++++++++++...... ",
" ........@#........++++++++++...... ",
" ........@#........++++++++++...... ",
" ........@#........++++++++++...... ",
" ........@#........++++++++++...... ",
" ........@#........++++++++++...... ",
" ........@#........++++++++++...... ",
" ........@#........++++++++++...... ",
" ........@#........++++++++++...... ",
" ........@#........++++++++++...... ",
" ........@#........++++++++++...... ",
" ........@#........++++++++++...... ",
" ........@#........++++++++++...... ",
" ........@#........++++++++++...... ",
" ........@#........++++++++++...... ",
" ........@#........++++++++++...... ",
" ........@#........++++++++++...... ",
" ........@#........++++++++++...... ",
" ........@#........++++++++++...... ",
" ........@#........++++++++++...... ",
" ........@#........++++++++++...... ",
" ........@#........++++++++++...... ",
" ........@#........++++++++++...... ",
" ........@#........++++++++++...... ",
" ........@#........++++++++++...... ",
" ........@#........++++++++++...... ",
" ........@#........++++++++++...... ",
" ........@#........++++++++++...... ",
" ........@#........++++++++++...... ",
" ........@#........++++++++++...... ",
" ........@#........++++++++++...... ",
" ........@#........++++++++++...... ",
" ........@#........++++++++++...... ",
" ........@#........++++++++++...... ",
" ........@#........++++++++++...... ",
" ........@#........++++++++++...... ",
" ........@#........++++++++++...... ",
" ........@#........++++++++++...... ",
" ........@#........++++++++++...... ",
" ........@#........++++++++++...... ",
" ........@#........++++++++++...... ",
" ........@#........++++++++++...... ",
" ........@#........++++++++++...... ",
" ........@#........++++++++++...... ",
" ........@#........++++++++++...... ",
" ........@#........++++++++++...... ",
" ........@#........++++++++++...... ",
" ........@#........++++++++++...... ",
" ........@#........++++++++++...... ",
" ........@#........++++++++++...... ",
" ........@#........++++++++++...... ",
" ........@#........++++++++++...... ",
" ........@#........++++++++++...... ",
" ........@#........++++++++++...... ",
" ........@#........++++++++++...... ",
" ........@#........++++++++++...... ",
" ........@#........++++++++++...... ",
" ........@#........++++++++++...... ",
" ........@#........++++++++++...... ",
" ........@#........++++++++++...... ",
" ........@#........++++++++++...... ",
" ........@#........++++++++++...... ",
" ........@#........++++++++++...... ",
" ........@#........++++++++++...... ",
" ........@#........++++++++++...... ",
" ........@#........++++++++++...... ",
" ........@#........++++++++++...... ",
" ........@#........++++++++++...... ",
" ........@#........++++++++++...... ",
" ........@#........++++++++++...... ",
" ........@#........++++++++++...... ",
" ........@#........++++++++++...... ",
" ........@#........++++++++++...... ",
" ........@#........++++++++++...... ",
" ........@#........++++++++++...... ",
" ........@#........++++++++++...... ",
" ........@#........++++++++++...... ",
" ........@#........++++++++++...... ",
" ........@#........++++++++++...... ",
" ........@#........++++++++++...... ",
" ........@#........++++++++++...... ",
" ........@#........++++++++++...... ",
" ........@#........++++++++++...... ",
" ........@#........++++++++++...... ",
" ........@#........++++++++++...... ",
" ........@#........++++++++++...... ",
" ........@#........++++++++++...... ",
" ........@#........++++++++++...... ",
" ........@#........++++++++++...... ",
" ........@#........++++++++++...... ",
" ........@#........++++++++++...... ",
" ........@#........++++++++++...... ",
" ........@#........++++++++++...... ",
" ........@#........++++++++++...... ",
" ........@#........++++++++++...... ",
" ........@#........++++++++++...... ",
" ........@#........++++++++++...... ",
" ........@#........++++++++++...... ",
" ........@#........++++++++++...... ",
" ........@#........++++++++++...... ",
" ........@#........++++++++++...... ",
" ........@#........++++++++++...... ",
" ........@#........++++++++++...... ",
" ........@#........++++++++++...... ",
" ........@#........++++++++++...... ",
" ........@#........++++++++++...... ",
" ........@#........++++++++++...... ",
" ........@#........++++++++++...... ",
" ........@#........++++++++++...... ",
" ........@#........++++++++++...... ",
" ........@#........++++++++++...... ",
" ........@#........++++++++++...... ",
" ........@#........++++++++++...... ",
" ........@#........++++++++++...... ",
" ........@#........++++++++++...... ",
" ........@#........++++++++++...... ",
" ........@#........++++++++++...... ",
" ........@#........++++++++++...... ",
" ........@#........++++++++++...... ",
" ........@#........++++++++++...... ",
" ........@#........++++++++++...... ",
" ........@#........++++++++++...... ",
" ........@#........++++++++++...... ",
" ........@#........++++++++++...... ",
" ........@#........++++++++++...... ",
" ........@#........++++++++++...... ",
" ........@#........++++++++++...... ",
" ........@#........++++++++++...... ",
" ........@#........++++++++++...... ",
" ........@#........++++++++++...... ",
" ........@#........++++++++++...... ",
" ........@#........++++++++++...... ",
" ..................++++++++++...... ",
" .................................. ",
" .................................. ",
" .................................. ",
" .................................. ",
" .................................. ",
" .................................. ",
" .................................. ",
" .................................. ",
" ..++++++++++++++++++++++++++++++.. ",
" ..++++++++++++++++++++++++++++++.. ",
" ..++++++++++++++++++++++++++++++.. ",
" ..++++++++++++++++++++++++++++++.. ",
" ..++++++++++++++++++++++++++++++.. ",
" ..++++++++++++++++++++++++++++++.. ",
" ..++++++++++++++++++++++++++++++.. ",
" ..++++++++++++++++++++++++++++++.. ",
" ..++++++++++++++++++++++++++++++.. ",
" ..++++++++++++++++++++++++++++++.. ",
" ..++++++++++++++++++++++++++++++.. ",
" ..++++++++++++++++++++++++++++++.. ",
" ..++++++++++++++++++++++++++++++.. ",
" .................................. ",
" .................................. ",
" .................................. ",
" .................................. ",
" ..$$$$$$$$$$$$$$$$$$$$$$$$$$$$$$.. ",
" ..$$$$$$$$$$$$$$$$$$$$$$$$$$$$$$.. ",
" ..$$$$$$$$$$$$$$$$$$$$$$$$$$$$$$.. ",
" ..$$$$$$$$$$$$$$$$$$$$$$$$$$$$$$.. ",
" ..$$$$$$$$$$$$$$$$$$$$$$$$$$$$$$.. ",
" ..$$$$$$$$$$$$$$$$$$$$$$$$$$$$$$.. ",
" ..$$$$$$$$$$$$$$$$$$$$$$$$$$$$$$.. ",
" ..$$$$$$$$$$$$$$$$$$$$$$$$$$$$$$.. ",
" ..$$$$$$$$$$$$$$$$$$$$$$$$$$$$$$.. ",
" ..$$$$$$$$$$$$$$$$$$$$$$$$$$$$$$.. ",
" ..$$$$$$$$$$$$$$$$$$$$$$$$$$$$$$.. ",
" ..$$$$$$$$$$$$$$$$$$$$$$$$$$$$$$.. ",
" .................................. ",
" .................................. ",
" .................................. ",
"                                    "};
