/* XPM */
char const * output_r_xpm[] = {
"36 208 257 2",
"  	c None",
". 	c #000000",
"+ 	c #080808",
"@ 	c #080810",
"# 	c #001008",
"$ 	c #101010",
"% 	c #181010",
"& 	c #002010",
"* 	c #101818",
"= 	c #181818",
"- 	c #002918",
"; 	c #202018",
"> 	c #003118",
", 	c #202020",
"' 	c #202029",
") 	c #292020",
"! 	c #202920",
"~ 	c #292920",
"{ 	c #292929",
"] 	c #004120",
"^ 	c #293131",
"/ 	c #313131",
"( 	c #104A29",
"_ 	c #393939",
": 	c #394139",
"< 	c #414141",
"[ 	c #20524A",
"} 	c #4A4141",
"| 	c #414A41",
"1 	c #4A4A41",
"2 	c #4A4A4A",
"3 	c #524A41",
"4 	c #4A524A",
"5 	c #525252",
"6 	c #525A52",
"7 	c #5A5A52",
"8 	c #625A4A",
"9 	c #317B20",
"0 	c #5A625A",
"a 	c #62625A",
"b 	c #626A62",
"c 	c #6A6A62",
"d 	c #6A6A6A",
"e 	c #736A62",
"f 	c #737373",
"g 	c #7B736A",
"h 	c #737B73",
"i 	c #737B7B",
"j 	c #7B7B73",
"k 	c #7B7B7B",
"l 	c #7B8373",
"m 	c #7B837B",
"n 	c #83837B",
"o 	c #838383",
"p 	c #838B83",
"q 	c #8B8B83",
"r 	c #8B8B8B",
"s 	c #8B948B",
"t 	c #94948B",
"u 	c #949494",
"v 	c #949C94",
"w 	c #949C9C",
"x 	c #9C9C94",
"y 	c #9C9C9C",
"z 	c #9CA49C",
"A 	c #9CA4A4",
"B 	c #A4A49C",
"C 	c #A4A4A4",
"D 	c #A4ACA4",
"E 	c #ACACA4",
"F 	c #ACACAC",
"G 	c #B4B4AC",
"H 	c #BDBDB4",
"I 	c #C5C5BD",
"J 	c #CDCDCD",
"K 	c #D5D5CD",
"L 	c #DEDED5",
"M 	c #DEE6DE",
"N 	c #E6E6E6",
"O 	c #EEEEEE",
"P 	c #F6EEEE",
"Q 	c #F6F6F6",
"R 	c #F6FFFF",
"S 	c #FFFFFF",
"T 	c #6633FF",
"U 	c #666600",
"V 	c #666633",
"W 	c #666666",
"X 	c #666699",
"Y 	c #6666CC",
"Z 	c #6666FF",
"` 	c #669900",
" .	c #669933",
"..	c #669966",
"+.	c #669999",
"@.	c #6699CC",
"#.	c #6699FF",
"$.	c #66CC00",
"%.	c #66CC33",
"&.	c #66CC66",
"*.	c #66CC99",
"=.	c #66CCCC",
"-.	c #66CCFF",
";.	c #66FF00",
">.	c #66FF33",
",.	c #66FF66",
"'.	c #66FF99",
").	c #66FFCC",
"!.	c #66FFFF",
"~.	c #990000",
"{.	c #990033",
"].	c #990066",
"^.	c #990099",
"/.	c #9900CC",
"(.	c #9900FF",
"_.	c #993300",
":.	c #993333",
"<.	c #993366",
"[.	c #993399",
"}.	c #9933CC",
"|.	c #9933FF",
"1.	c #996600",
"2.	c #996633",
"3.	c #996666",
"4.	c #996699",
"5.	c #9966CC",
"6.	c #9966FF",
"7.	c #999900",
"8.	c #999933",
"9.	c #999966",
"0.	c #999999",
"a.	c #9999CC",
"b.	c #9999FF",
"c.	c #99CC00",
"d.	c #99CC33",
"e.	c #99CC66",
"f.	c #99CC99",
"g.	c #99CCCC",
"h.	c #99CCFF",
"i.	c #99FF00",
"j.	c #99FF33",
"k.	c #99FF66",
"l.	c #99FF99",
"m.	c #99FFCC",
"n.	c #99FFFF",
"o.	c #CC0000",
"p.	c #CC0033",
"q.	c #CC0066",
"r.	c #CC0099",
"s.	c #CC00CC",
"t.	c #CC00FF",
"u.	c #CC3300",
"v.	c #CC3333",
"w.	c #CC3366",
"x.	c #CC3399",
"y.	c #CC33CC",
"z.	c #CC33FF",
"A.	c #CC6600",
"B.	c #CC6633",
"C.	c #CC6666",
"D.	c #CC6699",
"E.	c #CC66CC",
"F.	c #CC66FF",
"G.	c #CC9900",
"H.	c #CC9933",
"I.	c #CC9966",
"J.	c #CC9999",
"K.	c #CC99CC",
"L.	c #CC99FF",
"M.	c #CCCC00",
"N.	c #CCCC33",
"O.	c #CCCC66",
"P.	c #CCCC99",
"Q.	c #CCCCCC",
"R.	c #CCCCFF",
"S.	c #CCFF00",
"T.	c #CCFF33",
"U.	c #CCFF66",
"V.	c #CCFF99",
"W.	c #CCFFCC",
"X.	c #CCFFFF",
"Y.	c #FF0000",
"Z.	c #FF0033",
"`.	c #FF0066",
" +	c #FF0099",
".+	c #FF00CC",
"++	c #FF00FF",
"@+	c #FF3300",
"#+	c #FF3333",
"$+	c #FF3366",
"%+	c #FF3399",
"&+	c #FF33CC",
"*+	c #FF33FF",
"=+	c #FF6600",
"-+	c #FF6633",
";+	c #FF6666",
">+	c #FF6699",
",+	c #FF66CC",
"'+	c #FF66FF",
")+	c #FF9900",
"!+	c #FF9933",
"~+	c #FF9966",
"{+	c #FF9999",
"]+	c #FF99CC",
"^+	c #FF99FF",
"/+	c #FFCC00",
"(+	c #FFCC33",
"_+	c #FFCC66",
":+	c #FFCC99",
"<+	c #FFCCCC",
"[+	c #FFCCFF",
"}+	c #FFFF00",
"|+	c #FFFF33",
"1+	c #FFFF66",
"2+	c #FFFF99",
"3+	c #FFFFCC",
"4+	c #FFFFFF",
"5+	c #000000",
"6+	c #0D0D0D",
"7+	c #1A1A1A",
"8+	c #282828",
"9+	c #353535",
"0+	c #434343",
"a+	c #505050",
"b+	c #5D5D5D",
"c+	c #6B6B6B",
"d+	c #787878",
"e+	c #868686",
"f+	c #939393",
"g+	c #A1A1A1",
"h+	c #AEAEAE",
"i+	c #BBBBBB",
"j+	c #C9C9C9",
"k+	c #D6D6D6",
"l+	c #E4E4E4",
"m+	c #F1F1F1",
"n+	c #FFFFFF",
"o+	c #0099FF",
"p+	c #00CCFF",
"q+	c #00FFFF",
"r+	c #3300FF",
"s+	c #3333FF",
"t+	c #3366FF",
"u+	c #3399FF",
"v+	c #33CCFF",
"w+	c #33FFFF",
"x+	c #6600FF",
"y+	c #6633FF",
"z+	c #6666FF",
"A+	c #6699FF",
"B+	c #66CCFF",
"C+	c #66FFFF",
"D+	c #9900FF",
"E+	c #9933FF",
"F+	c #9966FF",
"G+	c #9999FF",
"H+	c #99CCFF",
"2 1 1 1 1 1 1 1 1 1 1 1 1 1 1 1 1 1 1 1 1 1 1 1 1 1 1 1 1 1 1 1 1 1 1 { ",
"j g g g g g g g g g g g g g g g g g g g g g g g g g g g g g g g g g g / ",
"F F D D D D D D D D D D D D D D D D D D D D D D D D D D D D D D D D D a ",
"C C r m m m m m m m m m m m m m m m m m m m m m m m m m m m m m r x z 6 ",
"C C o < : _ / / ^ ^ { { { { { { { { { { { { { { { { ^ ^ / / _ : < z A 6 ",
"C C p : / / ^ { { { ' ' ' ' ' ' ' ' ' ' ' ' ' ' ' ' { { { ^ ^ / < D D 6 ",
"A A p _ / { { ' , ; = ; = ; = ; = ; = ; = ; = ; = ; ; , ' { { / _ F D 6 ",
"A A p / ^ { ' ; = = * * * * * * * * * * * * * * * * * = ; ' { ^ / F D 6 ",
"A A p / { ' ; = * $ $ @ @ @ @ @ @ @ @ @ @ @ @ @ @ $ * * = ; ' { / F D 6 ",
"A A p ^ { ' = * $ @ + + + + + + + + + + + + + + + + @ $ * = ' { ^ F D 6 ",
"A A p ^ { , = * $ @ + + + + + + + + + + + + + + + + @ $ * = , { ^ F D 6 ",
"A A p / { , = * $ @ + + + + + + + + + + + + + + + + @ % * = , { ^ F D 6 ",
"A A p / { ' ; = * $ $ @ @ @ @ @ @ @ @ @ @ @ @ @ @ $ $ * = ; ' { / F D 6 ",
"A A p / ^ { ' ; = = * * * * * * * * * * * * * * * * = = = ' { ^ / F D 5 ",
"A A p _ ^ { { ' , ; = = = = = = = = = = = = = = ; = ; , ' { { / _ F D 5 ",
"A A r < / / ^ { { { ' ' ' ' ' ' ' ' ' ' ' ' ' ' ' ' { { { ^ / / : G D 5 ",
"A A v < < _ / / ^ ^ { { { { { { { { { { { { { { { { ^ ^ / / _ < < G D 5 ",
"A A A F H H H H H H H H H H H H H H H H H H H H H H H H H H H H H G C 5 ",
"z z A D D F F F F F F F F F F F F F F F F F F F F F F F F F F F F C A 5 ",
"A A s b / / / / / / / / / / / / / / / / / / / / / / / / / / / / b s y 5 ",
"z z r 2 7 7 5 5 2 7 4 5 6 2 5 5 5 4 2 2 4 4 4 4 4 6 4 2 5 4 5 2 2 v z 5 ",
"z z r 5 4 7 5 4 7 5 4 4 4 6 5 7 5 7 4 4 4 2 6 2 4 7 6 6 4 4 7 2 / z z 5 ",
"z z r 6 4 5 4 5 2 5 2 7 6 2 2 7 2 7 4 4 2 5 5 5 4 4 4 4 5 5 7 | ! z z 5 ",
"z z r 6 2 4 4 6 6 2 2 6 2 6 2 2 4 5 6 5 4 4 7 2 4 4 2 4 2 2 2 < { z z 5 ",
"z z r 6 6 5 2 5 5 2 2 5 6 6 4 7 0 7 b j n j j l n j k g a 5 7 < { z z 5 ",
"z z r 6 7 2 4 2 { , / < 2 4 2 2 0 4 c . . . . . . . . . . 2 5 2 ! z z 5 ",
"z z r 6 7 7 4 < , g } 4 4 7 4 7 a 4 0 . . . . . . . . . . | 2 2 ! z z 5 ",
"z z r 6 6 4 7 1 ~ 8 { 0 0 5 6 2 6 4 a . & # & & & # & - . | 4 : ~ z z 5 ",
"z z q 6 5 6 2 2 { 3 ) b 7 4 7 4 a 4 7 . & & - - - > - ] . : 4 | { z z 5 ",
"z z r 6 7 2 4 2 , 3 ) c b 7 7 2 0 7 c . > > ] - > ] ] ( . < 2 : ! z z 5 ",
"z z r 6 6 4 2 2 { 3 ) e 0 2 2 2 a 4 0 . - > ] ] > ] ] ( . < 4 2 { z z 5 ",
"z z r 6 6 2 2 < ~ 3 ) b 0 7 2 4 6 2 a . - - > > ] > ] ( . < | 2 ! z y 5 ",
"z z r 6 4 5 4 : ~ 3 ) e 6 5 4 5 6 2 b . - > ] > > ] ] ( . | | 2 , y z 5 ",
"z z p 6 4 2 2 | ! 3 ) b 6 7 4 4 7 5 b . - > > ] > ] ] ( . : | : ~ y y 5 ",
"z z p 6 4 6 2 2 { 3 ) c 6 7 4 2 0 6 b . - > > > ] > ] ( . : 4 | { y y 5 ",
"z z r 6 7 4 6 1 { 3 ) g 0 4 5 4 6 4 b . - > > > > ] ] ( . 2 < | ~ y y 5 ",
"z z p 6 5 4 5 : ! 3 ) b b 2 2 4 7 6 0 . - > ] > > ] ] ( . | 5 : ! y y 5 ",
"z z p 6 6 4 5 | { 3 ) c 0 4 6 4 a 2 a . - - > ] > > ] ( . | 2 | { y y 5 ",
"z z p 5 4 5 4 2 { 3 ) g 7 2 5 4 0 4 a . - - ] ] > > ] ( . < 2 : ! y y 5 ",
"z z p 6 2 7 6 2 { 3 ) c 7 5 5 2 5 7 7 . - - > ] > ] ] ( . : 5 : ! y y 5 ",
"z z p 5 4 7 6 | { 3 ) b 0 2 5 4 5 7 c . - > > - ] > ] ( . | 2 | ! y y 5 ",
"z z p 6 7 5 2 | { 3 ) b a 2 7 2 0 6 b . - - > > ] > ] ( . : | 2 , y y 5 ",
"z z p 5 5 2 2 2 , 3 ) c b 2 5 7 7 5 a . - > > > > > ] ( . < 4 2 , y y 5 ",
"z z p 5 7 2 4 < , 3 ) b 7 4 7 4 a 7 7 . > > ] ] ] > ] ( . 2 2 | { y y 5 ",
"z z p 5 2 5 4 : ! 3 ) b 6 7 2 6 5 5 0 . > > > > > > ] ( . < 4 < { y y 5 ",
"z z p 5 4 6 2 < ~ 3 ) e 0 4 5 4 7 4 a . - > ] > ] > ] ( . < | < ! y y 5 ",
"z z p 5 2 6 7 2 ! 3 ) a b 5 2 7 6 7 b . - - > > > > ] ( . | | | ~ y y 5 ",
"z z p 5 4 4 6 1 , 3 ) b 0 4 2 4 a 4 a . - - > > > ] ] ( . 2 | < , y y 5 ",
"z z p 5 2 7 2 2 { 3 ) b 6 2 2 6 0 2 b . - - > > ] ] ] ( . < | 2 , y y 5 ",
"z z p 5 4 4 6 2 { 3 ) e 0 4 2 5 6 5 a . > > ] > > > ] ( . | | < { y y 5 ",
"y y p 5 4 7 4 < ~ 3 ) e 0 6 2 7 5 7 b . - > > ] > > ] ( . < 4 : { y y 5 ",
"y y p 5 5 4 7 : ! 3 ) c b 2 2 4 5 2 a . - - ] ] > ] ] ( . 2 5 < { y y 5 ",
"y y p 5 4 6 5 : ~ 3 ) a 0 4 2 4 6 4 b . > - ] > > > ] ( . | 4 < , y w 5 ",
"y y p 5 4 7 7 < ! 3 ) b a 6 4 7 6 4 c . - > > - ] > ] ( . : 2 < ! w y 5 ",
"y y p 5 5 4 4 < ~ 3 ) g 6 7 5 6 0 4 0 . - - > > > > > ( . 2 2 | ! y y 5 ",
"y y p 5 2 6 5 | ! 3 ) c 6 5 7 2 5 7 0 . - ] > > > > ] ( . : 2 2 ~ w w 5 ",
"y y p 5 6 4 7 2 , 3 ) c b 4 4 2 0 4 a . - - ] > ] > ] ( . : 2 2 { w w 5 ",
"y y p 5 2 4 4 2 ~ 3 ) c 0 5 6 5 6 4 c . - - > > > > ] ( . : 4 < ~ w w 4 ",
"y y p 5 5 5 6 < ! 3 ) b 6 4 4 7 0 7 a . - > > > > > ] ( . 2 | < , w w 4 ",
"y y p 5 4 5 7 | , 3 ) c a 4 6 4 a 4 a . - > ] > > ] ] ( . : 5 < , w w 5 ",
"y y p 5 6 6 4 < ! 3 ) c b 5 2 4 4 2 0 . - ] > > > ] ] ( . | 2 2 { w w 4 ",
"y y p 5 4 4 4 | { 3 ) b 0 5 5 4 0 2 7 . - - > ] - > ] ( . : 4 < { w w 4 ",
"y y p 5 2 2 7 : { 3 ) a a 5 5 4 6 4 a . - > ] > > > ] ( . 2 4 < { w w 4 ",
"y y p 5 4 2 4 | { 3 ) e 6 6 6 7 6 5 0 . - - ] > ] ] ] ( . : 2 | ! w w 4 ",
"y y p 5 4 5 7 2 { 3 ) b b 2 2 4 6 4 0 . - - > ] ] > ] ( . 2 2 < ! w w 4 ",
"y y p 5 4 4 5 | { 3 ) b a 4 2 7 a 6 0 . - > > - > ] ] ( . 2 5 < ~ v v 4 ",
"y y o 5 4 4 4 < { 3 ) a a 4 2 2 0 4 0 . - > > ] - > ] ( . | 5 : { v w 4 ",
"y y o 5 4 5 7 : ~ 3 ) e a 4 5 4 6 2 c . - - ] > > > ] ( . | < | ~ v v 4 ",
"w w o 5 2 6 7 | { 3 ) c 7 7 2 6 6 2 b . - > ] > > > ] ( . 2 | 2 { v v 4 ",
"w w o 5 4 5 2 | ! 3 ) g 6 4 2 2 a 7 0 . - - ] > > > ] ( . | 5 2 ! v v 4 ",
"x x o 5 5 2 6 < { 3 ) e a 7 4 6 5 6 7 . - > - > > > ] ( . : | | ~ v v 4 ",
"w w o 5 7 5 4 : ~ 3 ) c 6 7 5 5 7 2 0 . - > > > > ] ] ( . 2 5 2 { v v 4 ",
"w w o 5 7 6 5 < { 3 ) a b 6 5 4 0 5 a . > - > > > > ] ( . < 2 < ~ v v 4 ",
"w w o 5 4 5 5 2 { 3 ) c 0 4 5 5 0 4 c . - - > ] ] > ] ( . | | | { v v 4 ",
"x x o 5 2 4 7 2 , 3 ) a b 5 2 4 0 2 b . - - ] > > > ] ( . 2 2 < { v v 4 ",
"x x o 5 5 4 2 2 { 3 ) a 6 4 7 6 a 4 b . > - > > > ] ] ( . | 4 | , v v 4 ",
"w w o 5 2 4 5 < ~ 3 ) b 6 4 5 7 7 2 0 . - > ] > ] > ] ( . 2 4 | ! v v 4 ",
"x x o 5 5 2 2 | ! 3 ) b 6 6 4 4 0 4 0 . - - ] ] ] ] ] ( . | | 2 ! v v 4 ",
"x x o 5 7 2 7 2 ! 3 ) a b 5 4 4 a 7 a . & > ] > > ] ] ( . 2 | : { v v 4 ",
"w w o 5 7 2 4 2 ! 3 ) a 0 6 4 6 5 7 7 . > > > > ] ] ] ( . | 4 < ~ v v 4 ",
"w w o 5 5 4 5 | ! 3 ) c 6 6 5 4 7 5 0 . - > > > > > ] ( . < | | { v v 4 ",
"x v o 5 7 4 6 2 ! 3 ) a b 4 7 4 5 5 b . - - ] ] ] ] ] ( . < 2 2 { v v 4 ",
"x v o 5 4 6 6 2 { 3 ) a b 4 5 7 0 5 0 . > > > > ] ] ] ( . | 4 < , v v 4 ",
"x v o 5 7 2 2 | ! 3 ) c a 5 4 2 a 6 0 . - - > - > ] ] ( . | < 2 ! v v 4 ",
"x v o 5 6 2 2 < ~ 3 ) e 0 5 7 7 5 4 c . - - > > > ] ] ( . : 5 2 ~ v v 4 ",
"x v o 5 4 4 6 < { 3 ) c a 4 5 7 7 6 b . - > > ] > > ] ( . | 2 2 ! v v 4 ",
"x v o 5 6 4 2 | , 3 ) f 6 5 4 4 6 5 a . - - ] > > > ] ( . | 2 | ~ v v 4 ",
"v v o 4 4 5 6 | { 3 ) b a 4 7 2 0 5 a . - > > ] > ] ] ( . < 2 2 ! v v 4 ",
"v v o 5 5 6 4 | { 3 ) b 7 4 4 2 0 4 b . - > > > > ] ] ( . | | < , v u 4 ",
"v v o 5 4 4 5 2 ! 3 ) b 0 6 2 7 a 7 b . - - ] > - > ] ( . | 4 2 , u v 4 ",
"v v o 4 4 5 5 < { 3 ) c 0 4 5 6 0 2 a . > > > ] > ] ] ( . | 5 | ! u u 4 ",
"v v o 5 5 5 7 2 ~ 3 ) g 6 2 2 4 0 2 0 . - > > ] > ] ] ( . 2 2 2 , v u 4 ",
"v v o 4 7 2 6 : ~ 3 ) e 0 5 2 5 0 5 b . - - ] > ] ] ] ( . < | | ! u u 4 ",
"v v m 4 2 2 2 : ~ 3 ) b 0 5 4 7 5 4 b . - - ] > > > ] ( . < 4 | ! u u 4 ",
"v v m 5 4 2 4 | ! 3 ) e a 4 4 4 a 2 0 . - - > > > > ] ( . < 4 | { u u 4 ",
"v v m 4 5 4 5 2 , 3 ) b 7 2 4 2 0 4 b . > > ] > > > ] ( . | | 2 ~ u u 4 ",
"v v m 4 4 4 6 2 ! 3 ) b 6 6 4 5 a 4 0 . - > > ] > ] ] ( . 2 2 | , u u 4 ",
"v v m 4 4 4 5 | ! 3 ) b 6 4 6 6 6 4 a . - > > ] > > ] ( . | 5 < ~ u u 4 ",
"v v m 4 5 5 7 | ! 3 ) b 6 7 6 6 6 5 a . - - > ] > > > ( . < 4 2 , u u 4 ",
"v v m 4 4 2 4 : { 3 ) c 7 7 4 4 5 7 0 . - - ] > > > ] ( . | | | { u u 4 ",
"v v m 4 6 7 5 2 ! 3 ) b 6 5 4 5 0 6 b . - > ] > > ] ] ( . < 5 | ~ u u 4 ",
"v v m 4 5 4 7 < ! 3 ) g 7 4 4 7 7 5 b . - - > ] > ] ] ( . 2 < 2 ! u u 4 ",
"v v m 4 6 2 5 | { 3 ) c 0 2 6 7 a 4 0 . - - ] ] > ] ] ( . : | | ~ u u 4 ",
"u u m 4 2 4 6 < { 3 ) c 7 4 2 7 6 4 b . - > > - ] ] ] ( . | 4 | { u u 4 ",
"v v m 4 2 7 5 2 ! 3 ) e 6 5 4 5 a 2 c . - > > > ] - ] ( . < 5 2 { u u 4 ",
"u u m 4 5 2 4 < , 3 ) c a 2 4 4 6 5 b . > > ] ] ] > ] ( . 2 5 < { u u 4 ",
"u u m 4 4 4 4 | ~ 3 ) b 0 4 4 6 a 6 0 . - > > - ] > ] ( . 2 < | ~ u u 4 ",
"v v m 4 4 6 4 | , 3 ) b 0 7 4 6 a 4 0 . - > ] ] ] > ] ( . : | | , u u 2 ",
"u u m 4 6 2 6 : ! 3 ) b 6 4 6 2 7 5 0 . - - > > > > ] ( . 1 5 | , u u 4 ",
"u u m 4 2 4 4 : { 3 ) c a 5 5 4 a 4 0 . - > > > > ] ] ( . < | | { u u 4 ",
"u u m 4 4 2 2 | ~ 3 ) a 0 5 2 2 a 5 0 . - > > > > > ] ( . 2 5 | { u u 2 ",
"u u m 4 4 2 2 | ! 3 ) c 0 4 5 7 5 2 a . - - > > > - ] ( . 2 4 < { u u 2 ",
"u u m 4 6 6 4 : { 3 ) b 7 2 2 4 6 4 a . - - ] > > ] ] ( . : 5 2 , u u 2 ",
"u u m 4 4 4 5 < { 3 ) c b 5 6 4 7 4 a . - > > > ] ] ] ( . 2 < < ~ t t 2 ",
"u u m 4 5 7 4 2 ! 3 ) c b 5 6 4 0 2 c . - ] ] > ] > ] ( . 2 | | ! t t 2 ",
"u u m 4 5 4 2 2 ~ 3 ) c a 5 6 4 0 4 c . > > > > - > ] ( . : 4 < ! t t 2 ",
"u u m 4 6 5 4 | { 3 ) b 0 2 4 4 0 4 0 . - - ] > ] > > ( . | 2 | { t t 2 ",
"u u m 4 4 2 5 : { 3 ) e a 2 4 4 7 7 a . - > ] > > > ] ( . : 4 : { t t 2 ",
"u u m 4 7 4 7 | , 3 ) f 6 6 4 2 0 6 a . - - > > > ] ] ( . 2 5 2 ! s s 2 ",
"u u m 4 4 2 6 | , 3 ) e a 4 4 4 6 4 b . > ] > > > ] ] ( . : 4 2 , s t 2 ",
"u u m 4 4 2 5 < , 3 ) c 7 2 7 2 a 2 b . - > ] > > > ] ( . : | 2 ! t s 2 ",
"u u m 4 7 6 2 | ! 3 ) e 0 2 4 7 7 6 7 . - > > > ] > ] ( . | 2 2 , t s 2 ",
"u u m 4 7 4 6 : ~ 3 ) a 0 2 5 5 0 6 c . - > > ] ] ] ] ( . | 4 : ! s s 2 ",
"u u m 4 4 5 5 : { 3 ) c 6 2 4 4 6 5 0 . - > > ] > ] ] ( . | < 2 ~ s s 2 ",
"u u m 4 5 5 6 | , 3 ) b b 2 4 5 5 5 a . > > > > > > ] ( . | 4 2 { s s 2 ",
"u u m 4 7 4 6 | ~ 3 ) c a 4 4 2 a 5 b . > - > ] ] > ] ( . 2 | 2 ~ s s 2 ",
"u u m 4 2 6 7 : ! 3 ) b 0 2 6 4 0 4 c . > > > > ] > ] ( . : | | ! s s 2 ",
"t t m 4 6 2 5 2 ~ 3 ) b 0 2 2 4 6 4 c . - > > > ] > ] ( . : 2 < , s s 2 ",
"t t m 4 2 4 4 2 ! 3 ) a a 5 4 5 a 4 b . - > ] > ] > ] ( . < 4 | { s s 2 ",
"t t m 4 4 5 4 | { 3 ) e 6 5 7 5 6 5 b . > > ] > ] ] ] ( . < 5 2 ~ s s 2 ",
"t t m 4 2 5 7 : { 3 ) a b 4 5 6 0 4 0 . > > ] ] > > ] ( . 2 < < ! s s 2 ",
"t t m 4 5 6 7 | ! 3 ) b a 2 4 4 5 4 c . & - > > ] > ] ( . | 5 : ! s s 2 ",
"t t m 4 2 7 4 | ~ 3 ) c b 7 2 4 0 6 a . > > > ] ] ] ] ( . : 4 : , s s 2 ",
"t t m 4 2 5 4 : { 3 ) a b 5 2 5 6 6 0 . > > > > ] ] ] ( . 2 | < { s s 2 ",
"s s m 4 4 5 2 | { 3 ) b 6 2 5 4 5 7 b . - > > > > ] ] ( . 2 | : { s s 2 ",
"t t k 4 5 7 6 2 { 3 ) e b 5 4 6 a 4 b . - - > ] ] ] ] ( . 2 | < { s s 2 ",
"t t s 4 2 6 7 4 { 3 ) a a 7 5 2 4 6 0 . - > ] ] > > ] ( . < | 2 { s s 2 ",
"s s s 4 4 5 5 5 ! 3 ) b 7 2 4 7 4 7 0 . - > > > > > ] ( . < 4 : ! s s 2 ",
"s s s 4 5 4 4 2 { 3 ) b b 5 6 5 2 4 a . - > > ] > ] ] ( . < 5 | ~ s s 2 ",
"s s s 2 5 2 2 5 ~ 3 ) b 0 4 5 5 6 6 7 . > > > > ] > ] ( . 2 | | { s s 2 ",
"s s s 2 5 5 5 4 { 3 ) a 0 2 4 4 6 4 c . - - ] > > ] ] ( . 2 4 | { s r 2 ",
"s s r 2 5 5 7 2 ! 3 ) b a 2 7 2 4 4 0 . - > > ] > ] ] ( . 1 | | ~ s s 2 ",
"s s r 2 7 5 5 7 , 3 ) c b 2 5 5 6 2 0 . - > > ] ] ] ] ( . 2 4 : { r r 2 ",
"s s r 2 5 4 5 4 { 3 ) c a 4 2 7 2 2 a . - - ] > > ] ] ( . : | 2 ~ r r 2 ",
"s s r 2 5 2 2 7 ~ 3 ) c 7 2 4 4 2 4 0 . - > ] > ] > ] ( . 2 2 | ~ r r 2 ",
"s s r 2 2 4 4 7 ! 3 ) b 7 2 2 4 4 7 7 . - > > > ] > ] ( . 2 2 | { r r 2 ",
"s s r 2 5 7 2 4 { 3 ) c b 7 4 4 5 6 0 . - > > - > > ] ( . < 4 : , r r 2 ",
"s s r 2 2 4 4 6 ~ 3 ) c a 2 6 6 2 7 a . > - ] > > > ] ( . < 2 2 ~ r r 2 ",
"s s r 2 2 5 4 2 ! 3 ) b 6 7 2 6 2 5 0 . > > > > > > ] ( . < 4 < { r r 1 ",
"s s r 2 4 2 5 4 ~ 3 ) c 0 4 4 2 2 4 b . - > > > ] > ] ( . : 2 < , r r 2 ",
"s s r 2 7 4 5 4 ! 3 ) c b 4 2 4 4 7 b . - - ] > > > ] ( . < 5 : { r r 2 ",
"s s r 2 4 6 5 5 ! 3 ) a a 5 4 5 4 6 0 . - > > > - ] ] ( . | 2 | ~ r r 1 ",
"r r r 2 4 4 6 2 ! 3 ) c 6 7 4 4 2 4 0 . > - > ] > > ] ( . : | | ! r r 1 ",
"s s r 2 6 6 2 7 ~ 3 ) c 0 4 2 5 2 7 0 . - > ] > > > ] ( . | 5 < , r r 1 ",
"r r r 2 5 6 6 4 { 3 ) e b 7 4 5 4 2 0 . > - ] > > > ] ( . | | | ~ r r 1 ",
"r r r 2 4 6 4 4 ! 3 ) e b 4 5 4 2 7 b . - > ] ] > > ] ( . 2 | | ! r r | ",
"r r p 2 6 5 5 4 ~ 3 ) c 0 4 4 5 2 4 b . - - ] > ] ] > ( . 2 2 | { p p | ",
"r r p 2 5 7 4 7 { 3 ) e b 6 2 2 6 5 0 . - - > > > ] ] ( . | 4 : , p r | ",
"r r p 2 7 4 4 6 , 3 ) c 6 4 2 4 4 6 0 . - > ] > > > ] ( . : < 2 ~ r p 1 ",
"r r p 1 5 6 6 5 { 3 ) g 6 4 7 4 2 5 a . - - > > ] > ] ( . | 4 : { p p | ",
"r r p 1 4 6 5 2 ! 3 ) b 0 2 4 6 4 5 b . - - > > ] ] > ( . : | : ! p p | ",
"r r p 1 4 5 4 6 { 3 ) c b 4 6 6 4 6 c . > > ] > > > ] ( . : | | , p p | ",
"r r p 1 5 5 4 5 ! 3 ) e 6 4 2 7 4 7 a . - > ] > ] > ] ( . 2 2 : ~ p p | ",
"r r p 1 7 6 6 2 ! 3 ) b a 5 2 5 5 2 0 . - > ] > ] ] ] ( . : < | { p p | ",
"r r p 1 2 2 7 4 ~ 3 ) b 6 5 5 5 6 7 0 . > ] ( ( ( ( ( ( . | 2 < ~ p p | ",
"p p p | 4 5 6 5 / _ = e 7 2 7 7 7 4 c . ] ( [ : 9 [ | : . < 2 : ! p p | ",
"p p p | 7 4 2 2 4 ) + j b 5 4 4 4 4 5 . . . . . . . . . . : | < ! p p | ",
"p p p | 5 5 5 5 6 g n n 6 4 5 5 5 2 4 | : _ < / / _ / / _ < 4 2 ~ p p | ",
"p p p | 2 4 4 6 6 6 c 0 7 2 6 6 2 7 4 5 | 2 < 2 | | 2 2 < 2 4 2 ~ p p | ",
"p p p | 5 4 5 6 6 4 7 7 4 7 2 4 4 4 7 5 2 5 4 4 2 2 4 5 4 4 4 : { p p | ",
"p p p 5 4 4 _ _ : / / _ _ < : _ _ : : : _ : _ : / _ < / : < _ / ; p o | ",
"p p o h _ * $ @ * @ $ $ $ $ $ $ $ % $ $ $ @ $ $ @ $ $ $ % $ $ $ $ p p | ",
"p p p o o o o p p p p o o p o p o o o o p p o o p o o o o p o p o o o < ",
"p p m k i i i i i i i i i i i i i i i i i i i i i i k i i i k k m o o | ",
"p p f b b b b b b a b b b b b b a b b b a b b b b a a b a b a b f m o < ",
"p p d < : _ / / ^ ^ { { { { { { { { { { { { { { { { ^ ^ / / / : < m p | ",
"p p d : / ^ ^ { { { ' ' ' ' ' ' ' ' ' ' ' ' ' ' ' ' { { { ^ / / : s r < ",
"p p d / ^ ^ { ' , ; = ; = ; = ; = ; = ; = ; = ; = ; ; , ' { ^ / : u s < ",
"p p d / ^ { ' ; = * * * * * * * * * * * * * * * * * = = ; ' { ^ / t r | ",
"p p d ^ { ' ; = * * $ @ @ @ @ @ @ @ @ @ @ @ @ @ @ $ $ * = ; ' { / t r < ",
"p p d ^ { ' = * $ @ + + + + + + + + + + + + + + + + @ $ * = , { ^ t r < ",
"o o d { { , = * $ @ + + + + + + + + + + + + + + + + @ $ * = , { ^ t r | ",
"o o d ^ { , = * % @ + + + + + + + + + + + + + + + + @ $ * = , { / t r < ",
"o o d ^ { ' ; = * $ $ @ @ @ @ @ @ @ @ @ @ @ @ @ @ $ $ * = ; ' { / t r | ",
"o o d / ^ { ' ; = = * * * * * * * * * * * * * * * * = = ; ' { ^ / t r < ",
"o o d / ^ { { ' , = ; = = = = = = = = = = = = = = ; ; , ' { { / _ t r < ",
"o o f : / / ^ { { { ' ' ' ' ' ' ' ' ' ' ' ' ' ' ' ' { { { ^ / / : u r < ",
"o o i < < _ / / ^ ^ { { { { { { { { { { { { { { { { ^ ^ ^ / _ < < y r < ",
"o o p s z B D B B B B B B B B B B B B B B B B B B B B B B B C B C v p < ",
"o o o r s s s s s s s s t t s s s s s s s s s s t t s t s s t s s p o < ",
"o o m m m m m m m m m m m m m m m m m m m m m m m m m m m m m m m m m < ",
"o o m : _ _ _ _ _ _ _ _ _ _ _ _ _ _ _ _ _ _ _ _ _ _ _ _ _ _ _ _ _ m m < ",
"o o m I K I I I I I I I I I I I I I I I I I I I I I I I I I I I I t m < ",
"o o m I N R S S S S S S S S S S S S S S S S S S S S S S S S S S S 0 m < ",
"o o m E L Q Q Q Q Q Q Q Q Q Q Q Q Q Q Q Q Q Q Q Q Q Q Q Q Q R Q O : m < ",
"o o m G L P O O O O O O O O O O O O O O O O O O O O O O O O O O L } m < ",
"m m m E L P O O O O O O O O O O O O O O O O O O O O O O O O P O L | m : ",
"m m m G L P O O O O O O O O O O O O O O O O O O O O O O O O P O L 1 m : ",
"m m m E L P O O O O O O O O O O O O O O O O O O O O O O O O P O L 1 m : ",
"m m m G L Q O O O O O O O O O O O O O O O O O O O O O O O O P O L 1 m : ",
"m m m E L P O O O O O O O O O O O O O O O O O O O O O O O O P O L 1 m : ",
"m m m G L P O O P P P P P P P P P P P P P P P P P P P P P P P O M } m < ",
"m m m E L J L L L L L L L L L L L L L L L L L L L L L L L L M J E 1 k : ",
"m m m H t e b c b b b b b b b b b b b b b b b b b b b b b b c a 0 1 m : ",
"m m k c ; @ + + + + + + + + + + + + + + + + + + + + + + + + + + + @ m : ",
"m m m k k m m k m m m m m k k k m k m m m m k m m k m m k m m k k k m : ",
"e d 0 0 0 0 0 0 0 0 0 0 0 0 0 0 0 0 0 0 0 0 0 0 0 0 0 0 0 0 0 0 0 0 0 / ",
"4 / ^ { { { { { { ^ { { ^ { { ^ { { ^ { { { { ^ { { ^ { { { { { ^ { { { "};
