/* XPM */
char * over_xpm[] = {
"30 13 257 2",
"  	c None",
". 	c #000000",
"+ 	c #080000",
"@ 	c #080808",
"# 	c #080810",
"$ 	c #001008",
"% 	c #101010",
"& 	c #181010",
"* 	c #002010",
"= 	c #101818",
"- 	c #181818",
"; 	c #201818",
"> 	c #002918",
", 	c #202018",
"' 	c #003118",
") 	c #202020",
"! 	c #202029",
"~ 	c #292020",
"{ 	c #202920",
"] 	c #392020",
"^ 	c #292920",
"/ 	c #292929",
"( 	c #004120",
"_ 	c #293131",
": 	c #412920",
"< 	c #313129",
"[ 	c #313131",
"} 	c #104A29",
"| 	c #393939",
"1 	c #394139",
"2 	c #414141",
"3 	c #20524A",
"4 	c #414152",
"5 	c #4A4141",
"6 	c #414A41",
"7 	c #4A4A41",
"8 	c #4A4A4A",
"9 	c #524A41",
"0 	c #4A524A",
"a 	c #525252",
"b 	c #734A29",
"c 	c #5A524A",
"d 	c #525A52",
"e 	c #5A5A52",
"f 	c #625A4A",
"g 	c #317B20",
"h 	c #5A625A",
"i 	c #62625A",
"j 	c #6A6252",
"k 	c #626A62",
"l 	c #6A6A62",
"m 	c #6A6A6A",
"n 	c #736A62",
"o 	c #737373",
"p 	c #7B736A",
"q 	c #737383",
"r 	c #9C7329",
"s 	c #737B73",
"t 	c #737B7B",
"u 	c #7B7B73",
"v 	c #7B7B7B",
"w 	c #AC6A5A",
"x 	c #7B8373",
"y 	c #7B837B",
"z 	c #83837B",
"A 	c #838383",
"B 	c #838B83",
"C 	c #8B8B83",
"D 	c #8B8B8B",
"E 	c #9C8B73",
"F 	c #8B948B",
"G 	c #94948B",
"H 	c #949494",
"I 	c #949C94",
"J 	c #949C9C",
"K 	c #9C9C94",
"L 	c #9C9C9C",
"M 	c #B49C83",
"N 	c #9CA49C",
"O 	c #9CA4A4",
"P 	c #A4A49C",
"Q 	c #A4A4A4",
"R 	c #C5A45A",
"S 	c #A4ACA4",
"T 	c #ACACA4",
"U 	c #ACACAC",
"V 	c #B4B4AC",
"W 	c #C5B48B",
"X 	c #BDBDB4",
"Y 	c #C5C5BD",
"Z 	c #D5C59C",
"` 	c #CDCDCD",
" .	c #D5D5CD",
"..	c #E6D5A4",
"+.	c #F6CDCD",
"@.	c #DEDED5",
"#.	c #DEE6DE",
"$.	c #E6E6E6",
"%.	c #EEEEEE",
"&.	c #F6EEEE",
"*.	c #F6F6F6",
"=.	c #F6FFFF",
"-.	c #FFFFFF",
";.	c #66FF00",
">.	c #66FF33",
",.	c #66FF66",
"'.	c #66FF99",
").	c #66FFCC",
"!.	c #66FFFF",
"~.	c #990000",
"{.	c #990033",
"].	c #990066",
"^.	c #990099",
"/.	c #9900CC",
"(.	c #9900FF",
"_.	c #993300",
":.	c #993333",
"<.	c #993366",
"[.	c #993399",
"}.	c #9933CC",
"|.	c #9933FF",
"1.	c #996600",
"2.	c #996633",
"3.	c #996666",
"4.	c #996699",
"5.	c #9966CC",
"6.	c #9966FF",
"7.	c #999900",
"8.	c #999933",
"9.	c #999966",
"0.	c #999999",
"a.	c #9999CC",
"b.	c #9999FF",
"c.	c #99CC00",
"d.	c #99CC33",
"e.	c #99CC66",
"f.	c #99CC99",
"g.	c #99CCCC",
"h.	c #99CCFF",
"i.	c #99FF00",
"j.	c #99FF33",
"k.	c #99FF66",
"l.	c #99FF99",
"m.	c #99FFCC",
"n.	c #99FFFF",
"o.	c #CC0000",
"p.	c #CC0033",
"q.	c #CC0066",
"r.	c #CC0099",
"s.	c #CC00CC",
"t.	c #CC00FF",
"u.	c #CC3300",
"v.	c #CC3333",
"w.	c #CC3366",
"x.	c #CC3399",
"y.	c #CC33CC",
"z.	c #CC33FF",
"A.	c #CC6600",
"B.	c #CC6633",
"C.	c #CC6666",
"D.	c #CC6699",
"E.	c #CC66CC",
"F.	c #CC66FF",
"G.	c #CC9900",
"H.	c #CC9933",
"I.	c #CC9966",
"J.	c #CC9999",
"K.	c #CC99CC",
"L.	c #CC99FF",
"M.	c #CCCC00",
"N.	c #CCCC33",
"O.	c #CCCC66",
"P.	c #CCCC99",
"Q.	c #CCCCCC",
"R.	c #CCCCFF",
"S.	c #CCFF00",
"T.	c #CCFF33",
"U.	c #CCFF66",
"V.	c #CCFF99",
"W.	c #CCFFCC",
"X.	c #CCFFFF",
"Y.	c #FF0000",
"Z.	c #FF0033",
"`.	c #FF0066",
" +	c #FF0099",
".+	c #FF00CC",
"++	c #FF00FF",
"@+	c #FF3300",
"#+	c #FF3333",
"$+	c #FF3366",
"%+	c #FF3399",
"&+	c #FF33CC",
"*+	c #FF33FF",
"=+	c #FF6600",
"-+	c #FF6633",
";+	c #FF6666",
">+	c #FF6699",
",+	c #FF66CC",
"'+	c #FF66FF",
")+	c #FF9900",
"!+	c #FF9933",
"~+	c #FF9966",
"{+	c #FF9999",
"]+	c #FF99CC",
"^+	c #FF99FF",
"/+	c #FFCC00",
"(+	c #FFCC33",
"_+	c #FFCC66",
":+	c #FFCC99",
"<+	c #FFCCCC",
"[+	c #FFCCFF",
"}+	c #FFFF00",
"|+	c #FFFF33",
"1+	c #FFFF66",
"2+	c #FFFF99",
"3+	c #FFFFCC",
"4+	c #FFFFFF",
"5+	c #000000",
"6+	c #0D0D0D",
"7+	c #1A1A1A",
"8+	c #282828",
"9+	c #353535",
"0+	c #434343",
"a+	c #505050",
"b+	c #5D5D5D",
"c+	c #6B6B6B",
"d+	c #787878",
"e+	c #868686",
"f+	c #939393",
"g+	c #A1A1A1",
"h+	c #AEAEAE",
"i+	c #BBBBBB",
"j+	c #C9C9C9",
"k+	c #D6D6D6",
"l+	c #E4E4E4",
"m+	c #F1F1F1",
"n+	c #FFFFFF",
"o+	c #0E4C00",
"p+	c #0A0080",
"q+	c #000403",
"r+	c #BE0F17",
"s+	c #0F3404",
"t+	c #7B04BC",
"u+	c #04BD0A",
"v+	c #05050A",
"w+	c #17F700",
"x+	c #A0035A",
"y+	c #019A14",
"z+	c #64176E",
"A+	c #186604",
"B+	c #57019D",
"C+	c #035917",
"D+	c #01030B",
"E+	c #0CF000",
"F+	c #5C0072",
"G+	c #00710C",
"H+	c #B2006C",
"2 1 | [ [ _ _ / / / / / / / / / / / / / / / / _ _ [ [ | 1 2 ",
"1 [ [ _ / / / ! ! ! ! ! ! ! ! ! ! ! ! ! ! ! ! / / / / _ [ 2 ",
"| [ / / ! ) , - , - , - , - , - , - , - , - , / / _.u._./ | ",
"[ _ / ! , - - = = = = = = = = = = = = = = = = = u.Y.Y.Y.u.2 ",
"[ / ! , - = % % # # # # # # # # # # # # # # % : Y.Y.Y.Y.Y.b ",
"_ / ! - = % # @ @ @ @ @ @ @ @ @ @ @ @ @ @ @ @ u.Y.Y.Y.Y.Y.u.",
"_ / ) - = % # @ @ @ @ @ @ @ @ @ @ @ @ @ @ @ @ u.Y.Y.Y.Y.Y.u.",
"[ / ) - = % # @ @ @ @ @ @ @ @ @ @ @ @ @ @ @ @ u.Y.Y.Y.Y.Y.u.",
"[ / ! , - = % % # # # # # # # # # # # # # # % : Y.Y.Y.Y.Y.b ",
"[ _ / ! , - - = = = = = = = = = = = = = = = = / u.Y.Y.Y.u.2 ",
"| _ / / ! ) , - - - - - - - - - - - - - - , - = / _.u._./ | ",
"2 [ [ _ / / / ! ! ! ! ! ! ! ! ! ! ! ! ! ! ! ! / / : / / [ 1 ",
"2 2 | [ [ _ _ / / / / / / / / / / / / / / / / _ _ [ [ | 2 2 "};
