/* XPM */
char * peak_xpm[] = {
"8 5 257 2",
"  	c None",
". 	c #61FF48",
"+ 	c #6FFF57",
"@ 	c #7EFF57",
"# 	c #86FF5E",
"$ 	c #93FF5E",
"% 	c #A4FF6C",
"& 	c #D4FF87",
"* 	c #16FF5D",
"= 	c #16FBFF",
"- 	c #42AFFF",
"; 	c #45ADFF",
"> 	c #45ADFF",
", 	c #41FF41",
"' 	c #41FF63",
") 	c #41FFB1",
"! 	c #42FDFF",
"~ 	c #45F7FF",
"{ 	c #45F7FF",
"] 	c #45FF45",
"^ 	c #45FF65",
"/ 	c #45FFAF",
"( 	c #45FFF9",
"_ 	c #45FFFF",
": 	c #45FFFF",
"< 	c #45FF45",
"[ 	c #45FF65",
"} 	c #45FFAF",
"| 	c #45FFF9",
"1 	c #45FFFF",
"2 	c #45FFFF",
"3 	c #45FF45",
"4 	c #45FF65",
"5 	c #45FFAF",
"6 	c #45FFF9",
"7 	c #45FFFF",
"8 	c #45FFFF",
"9 	c #EBE000",
"0 	c #FC00FC",
"a 	c #2C28FF",
"b 	c #5654FF",
"c 	c #5958FF",
"d 	c #5958FF",
"e 	c #5DFF16",
"f 	c #28FF28",
"g 	c #29FAFF",
"h 	c #55A8FF",
"i 	c #58A7FF",
"j 	c #58A7FF",
"k 	c #63FF41",
"l 	c #54FF54",
"m 	c #54FFAA",
"n 	c #55FDFF",
"o 	c #58F7FF",
"p 	c #58F7FF",
"q 	c #65FF45",
"r 	c #58FF58",
"s 	c #58FFA8",
"t 	c #58FFF8",
"u 	c #58FFFF",
"v 	c #58FFFF",
"w 	c #65FF45",
"x 	c #58FF58",
"y 	c #58FFA8",
"z 	c #58FFF8",
"A 	c #58FFFF",
"B 	c #58FFFF",
"C 	c #65FF45",
"D 	c #58FF58",
"E 	c #58FFA8",
"F 	c #58FFF8",
"G 	c #58FFFF",
"H 	c #58FFFF",
"I 	c #FF5916",
"J 	c #FF282C",
"K 	c #FF28FF",
"L 	c #AA54FF",
"M 	c #A958FF",
"N 	c #A958FF",
"O 	c #FFFB16",
"P 	c #FFFA29",
"Q 	c #FF54FF",
"R 	c #827FFF",
"S 	c #8582FF",
"T 	c #8582FF",
"U 	c #B1FF41",
"V 	c #AAFF54",
"W 	c #7FFF7F",
"X 	c #80FCFF",
"Y 	c #83F3FF",
"Z 	c #83F3FF",
"` 	c #AFFF45",
" .	c #A8FF58",
"..	c #83FF83",
"+.	c #83FFF5",
"@.	c #83FFFF",
"#.	c #83FFFF",
"$.	c #AFFF45",
"%.	c #A8FF58",
"&.	c #83FF83",
"*.	c #83FFF5",
"=.	c #83FFFF",
"-.	c #83FFFF",
";.	c #AFFF45",
">.	c #A8FF58",
",.	c #83FF83",
"'.	c #83FFF5",
").	c #83FFFF",
"!.	c #83FFFF",
"~.	c #FF6242",
"{.	c #FF5456",
"].	c #FF54AA",
"^.	c #FF54FF",
"/.	c #F858FF",
"(.	c #F858FF",
"_.	c #FFAF42",
":.	c #FFA855",
"<.	c #FF7F82",
"[.	c #FF7FFF",
"}.	c #F682FF",
"|.	c #F682FF",
"1.	c #FFFD42",
"2.	c #FFFD55",
"3.	c #FFFC80",
"4.	c #D6D3D6",
"5.	c #D6D5D7",
"6.	c #D6D5D7",
"7.	c #F9FF45",
"8.	c #F8FF58",
"9.	c #F5FF83",
"0.	c #D6D7D6",
"a.	c #D6D7D7",
"b.	c #D6D7D7",
"c.	c #F9FF45",
"d.	c #F8FF58",
"e.	c #F5FF83",
"f.	c #D6D7D6",
"g.	c #D6D7D7",
"h.	c #D6D7D7",
"i.	c #F9FF45",
"j.	c #F8FF58",
"k.	c #F5FF83",
"l.	c #D6D7D6",
"m.	c #D6D7D7",
"n.	c #D6D7D7",
"o.	c #FF6445",
"p.	c #FF5859",
"q.	c #FF58A9",
"r.	c #FF58F8",
"s.	c #FF58FF",
"t.	c #FF58FF",
"u.	c #FFAD45",
"v.	c #FFA758",
"w.	c #FF8285",
"x.	c #FF82F6",
"y.	c #FF82FF",
"z.	c #FF82FF",
"A.	c #FFF745",
"B.	c #FFF758",
"C.	c #FFF383",
"D.	c #D7D5D6",
"E.	c #D7D5D7",
"F.	c #D7D5D7",
"G.	c #FFFF45",
"H.	c #FFFF58",
"I.	c #FFFF83",
"J.	c #D7D7D6",
"K.	c #D8D8D8",
"L.	c #D8D8D8",
"M.	c #FFFF45",
"N.	c #FFFF58",
"O.	c #FFFF83",
"P.	c #D7D7D6",
"Q.	c #D8D8D8",
"R.	c #D8D8D8",
"S.	c #FFFF45",
"T.	c #FFFF58",
"U.	c #FFFF83",
"V.	c #D7D7D6",
"W.	c #D8D8D8",
"X.	c #D8D8D8",
"Y.	c #FF6445",
"Z.	c #FF5859",
"`.	c #FF58A9",
" +	c #FF58F8",
".+	c #FF58FF",
"++	c #FF58FF",
"@+	c #FFAD45",
"#+	c #FFA758",
"$+	c #FF8285",
"%+	c #FF82F6",
"&+	c #FF82FF",
"*+	c #FF82FF",
"=+	c #FFF745",
"-+	c #FFF758",
";+	c #FFF383",
">+	c #D7D5D6",
",+	c #D7D5D7",
"'+	c #D7D5D7",
")+	c #FFFF45",
"!+	c #FFFF58",
"~+	c #FFFF83",
"{+	c #D7D7D6",
"]+	c #D8D8D8",
"^+	c #D8D8D8",
"/+	c #FFFF45",
"(+	c #FFFF58",
"_+	c #FFFF83",
":+	c #D7D7D6",
"<+	c #D8D8D8",
"[+	c #D8D8D8",
"}+	c #FFFF45",
"|+	c #FFFF58",
"1+	c #FFFF83",
"2+	c #D7D7D6",
"3+	c #D8D8D8",
"4+	c #D8D8D8",
"5+	c #00EA00",
"6+	c #00F500",
"7+	c #00FF00",
"8+	c #16FF16",
"9+	c #2CFF2C",
"0+	c #44FF44",
"a+	c #5AFF5A",
"b+	c #70FF70",
"c+	c #B8CFB8",
"d+	c #C1D1C1",
"e+	c #CAD3CA",
"f+	c #D2D6D2",
"g+	c #D8D8D8",
"h+	c #D8D8D8",
"i+	c #D8D8D8",
"j+	c #D8D8D8",
"k+	c #D8D8D8",
"l+	c #D8D8D8",
"m+	c #D8D8D8",
"n+	c #D8D8D8",
"o+	c #2BFF2B",
"p+	c #2D59FF",
"q+	c #00ED00",
"r+	c #FF7945",
"s+	c #16FF16",
"t+	c #C85BFF",
"u+	c #45FF45",
"v+	c #00EE00",
"w+	c #45FF45",
"x+	c #FF5A95",
"y+	c #45FF45",
"z+	c #CC43FF",
"A+	c #41FF41",
"B+	c #9158FF",
"C+	c #36FF36",
"D+	c #00EC00",
"E+	c #45FF45",
"F+	c #B833FF",
"G+	c #45FF45",
"H+	c #FF58B2",
"9 A.A.A.A.A.A.9 ",
"A.G.G.G.G.G.G.A.",
"A.G.G.G.G.G.G.A.",
"A.G.G.G.G.G.G.A.",
"9 A.A.A.A.A.A.9 "};
