/* XPM */
const char * peak_xpm[] = {
"8 5 3 1",
" 	c None",
".	c #EBE000",
"+	c #FFFF45",
"........",
"++++++++",
"++++++++",
"++++++++",
"........"};
