/* XPM */
char const * Slider1_xpm[] = {
"13 12 257 2",
"  	c None",
". 	c #000000",
"+ 	c #101010",
"@ 	c #181010",
"# 	c #202018",
"$ 	c #202020",
"% 	c #202920",
"& 	c #292920",
"* 	c #292929",
"= 	c #313129",
"- 	c #313131",
"; 	c #393939",
"> 	c #4A4A41",
", 	c #4A4A4A",
"' 	c #4A524A",
") 	c #5A524A",
"! 	c #626A62",
"~ 	c #6A6A62",
"{ 	c #7B736A",
"] 	c #7B7B73",
"^ 	c #7B8373",
"/ 	c #83837B",
"( 	c #8B8B83",
"_ 	c #94948B",
": 	c #9C9C9C",
"< 	c #A4A49C",
"[ 	c #ACACA4",
"} 	c #B4B4AC",
"| 	c #BDBDB4",
"1 	c #C5C5BD",
"2 	c #D5D5CD",
"3 	c #DEDED5",
"4 	c #EEEEEE",
"5 	c #F6F6F6",
"6 	c #00FF99",
"7 	c #00FFCC",
"8 	c #00FFFF",
"9 	c #330000",
"0 	c #330033",
"a 	c #330066",
"b 	c #330099",
"c 	c #3300CC",
"d 	c #3300FF",
"e 	c #333300",
"f 	c #333333",
"g 	c #333366",
"h 	c #333399",
"i 	c #3333CC",
"j 	c #3333FF",
"k 	c #336600",
"l 	c #336633",
"m 	c #336666",
"n 	c #336699",
"o 	c #3366CC",
"p 	c #3366FF",
"q 	c #339900",
"r 	c #339933",
"s 	c #339966",
"t 	c #339999",
"u 	c #3399CC",
"v 	c #3399FF",
"w 	c #33CC00",
"x 	c #33CC33",
"y 	c #33CC66",
"z 	c #33CC99",
"A 	c #33CCCC",
"B 	c #33CCFF",
"C 	c #33FF00",
"D 	c #33FF33",
"E 	c #33FF66",
"F 	c #33FF99",
"G 	c #33FFCC",
"H 	c #33FFFF",
"I 	c #660000",
"J 	c #660033",
"K 	c #660066",
"L 	c #660099",
"M 	c #6600CC",
"N 	c #6600FF",
"O 	c #663300",
"P 	c #663333",
"Q 	c #663366",
"R 	c #663399",
"S 	c #6633CC",
"T 	c #6633FF",
"U 	c #666600",
"V 	c #666633",
"W 	c #666666",
"X 	c #666699",
"Y 	c #6666CC",
"Z 	c #6666FF",
"` 	c #669900",
" .	c #669933",
"..	c #669966",
"+.	c #669999",
"@.	c #6699CC",
"#.	c #6699FF",
"$.	c #66CC00",
"%.	c #66CC33",
"&.	c #66CC66",
"*.	c #66CC99",
"=.	c #66CCCC",
"-.	c #66CCFF",
";.	c #66FF00",
">.	c #66FF33",
",.	c #66FF66",
"'.	c #66FF99",
").	c #66FFCC",
"!.	c #66FFFF",
"~.	c #990000",
"{.	c #990033",
"].	c #990066",
"^.	c #990099",
"/.	c #9900CC",
"(.	c #9900FF",
"_.	c #993300",
":.	c #993333",
"<.	c #993366",
"[.	c #993399",
"}.	c #9933CC",
"|.	c #9933FF",
"1.	c #996600",
"2.	c #996633",
"3.	c #996666",
"4.	c #996699",
"5.	c #9966CC",
"6.	c #9966FF",
"7.	c #999900",
"8.	c #999933",
"9.	c #999966",
"0.	c #999999",
"a.	c #9999CC",
"b.	c #9999FF",
"c.	c #99CC00",
"d.	c #99CC33",
"e.	c #99CC66",
"f.	c #99CC99",
"g.	c #99CCCC",
"h.	c #99CCFF",
"i.	c #99FF00",
"j.	c #99FF33",
"k.	c #99FF66",
"l.	c #99FF99",
"m.	c #99FFCC",
"n.	c #99FFFF",
"o.	c #CC0000",
"p.	c #CC0033",
"q.	c #CC0066",
"r.	c #CC0099",
"s.	c #CC00CC",
"t.	c #CC00FF",
"u.	c #CC3300",
"v.	c #CC3333",
"w.	c #CC3366",
"x.	c #CC3399",
"y.	c #CC33CC",
"z.	c #CC33FF",
"A.	c #CC6600",
"B.	c #CC6633",
"C.	c #CC6666",
"D.	c #CC6699",
"E.	c #CC66CC",
"F.	c #CC66FF",
"G.	c #CC9900",
"H.	c #CC9933",
"I.	c #CC9966",
"J.	c #CC9999",
"K.	c #CC99CC",
"L.	c #CC99FF",
"M.	c #CCCC00",
"N.	c #CCCC33",
"O.	c #CCCC66",
"P.	c #CCCC99",
"Q.	c #CCCCCC",
"R.	c #CCCCFF",
"S.	c #CCFF00",
"T.	c #CCFF33",
"U.	c #CCFF66",
"V.	c #CCFF99",
"W.	c #CCFFCC",
"X.	c #CCFFFF",
"Y.	c #FF0000",
"Z.	c #FF0033",
"`.	c #FF0066",
" +	c #FF0099",
".+	c #FF00CC",
"++	c #FF00FF",
"@+	c #FF3300",
"#+	c #FF3333",
"$+	c #FF3366",
"%+	c #FF3399",
"&+	c #FF33CC",
"*+	c #FF33FF",
"=+	c #FF6600",
"-+	c #FF6633",
";+	c #FF6666",
">+	c #FF6699",
",+	c #FF66CC",
"'+	c #FF66FF",
")+	c #FF9900",
"!+	c #FF9933",
"~+	c #FF9966",
"{+	c #FF9999",
"]+	c #FF99CC",
"^+	c #FF99FF",
"/+	c #FFCC00",
"(+	c #FFCC33",
"_+	c #FFCC66",
":+	c #FFCC99",
"<+	c #FFCCCC",
"[+	c #FFCCFF",
"}+	c #FFFF00",
"|+	c #FFFF33",
"1+	c #FFFF66",
"2+	c #FFFF99",
"3+	c #FFFFCC",
"4+	c #FFFFFF",
"5+	c #000000",
"6+	c #0D0D0D",
"7+	c #1A1A1A",
"8+	c #282828",
"9+	c #353535",
"0+	c #434343",
"a+	c #505050",
"b+	c #5D5D5D",
"c+	c #6B6B6B",
"d+	c #787878",
"e+	c #868686",
"f+	c #939393",
"g+	c #A1A1A1",
"h+	c #AEAEAE",
"i+	c #BBBBBB",
"j+	c #C9C9C9",
"k+	c #D6D6D6",
"l+	c #E4E4E4",
"m+	c #F1F1F1",
"n+	c #FFFFFF",
"o+	c #0E4C00",
"p+	c #0A0080",
"q+	c #000403",
"r+	c #BE0F17",
"s+	c #0F3404",
"t+	c #7B04BC",
"u+	c #04BD0A",
"v+	c #05050A",
"w+	c #17F700",
"x+	c #A0035A",
"y+	c #019A14",
"z+	c #64176E",
"A+	c #186604",
"B+	c #57019D",
"C+	c #035917",
"D+	c #01030B",
"E+	c #0CF000",
"F+	c #5C0072",
"G+	c #00710C",
"H+	c #B2006C",
"| / / / / / / / / / / / ' ",
"| 2 5 5 5 5 5 5 5 4 | ] / ",
"[ } 2 2 2 2 2 2 2 2 ( ) ; ",
"[ [ / / / / / / / ^ { , - ",
": { - ; - ; - ; - - = $ & ",
"~ # - - - - - - - - - - # ",
"< [ _ _ _ _ _ _ _ _ ( ! & ",
"^ [ 3 3 3 3 3 3 3 2 / @ . ",
"~ ] < 2 2 2 2 2 2 < = ; . ",
"! ] < < < < < < < < - ; . ",
"' ~ * * * * * * * % + ; . ",
"' ; ; ; ; ; ; ; ; . ; . ; "};
