/* XPM */
char const * solo_xpm[] = {
"13 26 28 1",
" 	c None",
".	c #3C3E2D",
"+	c #2E3E23",
"@	c #2E3623",
"#	c #7A7F51",
"$	c #690806",
"%	c #7C2000",
"&	c #272118",
"*	c #532800",
"=	c #F4BE91",
"-	c #F44E10",
";	c #23241A",
">	c #151610",
",	c #A85600",
"'	c #FF0000",
")	c #F4FDB7",
"!	c #181818",
"~	c #091809",
"{	c #091009",
"]	c #585949",
"^	c #000000",
"/	c #180000",
"(	c #C9A1A8",
"_	c #884129",
":	c #482100",
"<	c #D8D8D8",
"[	c #090000",
"}	c #020000",
".++@+++++++.#",
"$%%%%%%%%%%$&",
"*%=--------;>",
"*%,'')))'''&>",
"*%'')''''''&>",
"*%'')''''''&>",
"*%'''))''''&>",
"*%''''')'''&>",
"*%''''')'''&>",
"*%,')))-'''&>",
"*%--------*&>",
"*&>>>>>>>>>>>",
">>>>>>>>>>>>>",
"!~~{~~~~~~~!]",
"^^^^^^^^^^^^^",
"^/(________^^",
"^/::::::///^^",
"^/:::<<<///^^",
"^/::<//////^^",
"^/::<//////^^",
"^/:::<<////^^",
"^/:::::<///^^",
"^/:::::<///^^",
"^///<<<//[^^^",
"^^^}}}}//^^^^",
"^^^^^^^^^^^^^"};
